<?xml version="1.0" encoding="utf-8"?>
<!-- Generator: Adobe Illustrator 25.4.1, SVG Export Plug-In . SVG Version: 6.00 Build 0)  -->
<svg version="1.1" id="Layer_1" xmlns="http://www.w3.org/2000/svg" xmlns:xlink="http://www.w3.org/1999/xlink" x="0px"
	y="0px" viewBox="0 0 326.2 296.4" style="enable-background:new 0 0 326.2 296.4;" xml:space="preserve">
	<style type="text/css">
		.st0 {
			fill: #5793CE;
		}

		.st1 {
			fill: #396CAA;
		}

		.st2 {
			fill: #D4ECFF;
		}

		.st3 {
			fill: #FFFFFF;
		}

		.st4 {
			fill: #EFEFEF;
		}

		.st5 {
			fill: #173D7A;
		}

		.st6 {
			fill: #FAFDFF;
		}

		.st7 {
			opacity: 0.4;
			fill: #D4ECFF;
			enable-background: new;
		}

		.st8 {
			fill: #274F89;
		}

		.st9 {
			fill: #FF2C9C;
		}

		.st10 {
			fill: #D3008D;
		}

		.st11 {
			fill: #FFC2B0;
		}
	</style>
	<g id="Layer_2_00000057840043931607620540000013329853709702178733_">
		<g id="Ñëîé_1">
			<path class="st0" d="M148.3,102.3c0.3,0,0.6-0.3,0.6-0.6c0,0,0,0,0,0V77.4c0-0.3-0.3-0.6-0.6-0.6c-0.3,0-0.6,0.3-0.6,0.6
			c0,0,0,0,0,0v24.2C147.7,102,148,102.3,148.3,102.3C148.3,102.3,148.3,102.3,148.3,102.3z" />
			<rect x="146.3" y="75.9" class="st0" width="4.1" height="9.1" />
			<path class="st0" d="M146.9,85.9c0.9,0.5,2,0.5,2.9,0c0.5-0.2,0.7-0.7,0.5-1.2c-0.1-0.2-0.3-0.4-0.5-0.5c-0.9-0.5-2-0.5-2.9,0
			c-0.5,0.2-0.7,0.7-0.5,1.2C146.5,85.6,146.6,85.8,146.9,85.9z" />
			<rect x="145" y="63.2" class="st0" width="6.6" height="14.2" />
			<path class="st1" d="M150.4,77.4v3.1c-1.3,0.6-2.8,0.6-4.1,0v-3.1C147.6,76.8,149.1,76.8,150.4,77.4z" />
			<path class="st0" d="M146,78.9c1.5,0.8,3.2,0.8,4.7,0c1.3-0.8,1.3-2,0-2.8c-1.5-0.8-3.2-0.8-4.7,0C144.7,76.9,144.7,78.1,146,78.9
			z" />
			<path class="st0" d="M125.4,115.6c0.3,0,0.6-0.3,0.6-0.6c0,0,0,0,0,0V90.7c0-0.3-0.3-0.6-0.6-0.6c-0.3,0-0.6,0.3-0.6,0.6
			c0,0,0,0,0,0V115C124.9,115.3,125.1,115.5,125.4,115.6z" />
			<rect x="123.4" y="89.2" class="st0" width="4.1" height="9.1" />
			<path class="st0" d="M124,99.1c0.9,0.5,2,0.5,2.9,0c0.5-0.2,0.7-0.7,0.5-1.2c-0.1-0.2-0.3-0.4-0.5-0.5c-0.9-0.5-2-0.5-2.9,0
			c-0.5,0.2-0.7,0.7-0.5,1.2C123.6,98.9,123.8,99.1,124,99.1z" />
			<rect x="122.1" y="76.5" class="st0" width="6.6" height="14.2" />
			<path class="st1" d="M127.5,90.7v3.1c-1.3,0.6-2.8,0.6-4.1,0v-3.1C124.7,90.2,126.2,90.2,127.5,90.7z" />
			<path class="st0" d="M123.1,92.2c1.5,0.8,3.2,0.8,4.7,0c1.3-0.8,1.3-2,0-2.8c-1.5-0.8-3.2-0.8-4.7,0
			C121.8,90.2,121.8,91.4,123.1,92.2z" />
			<polygon class="st0" points="103.2,100.2 94.4,94.8 102.8,83.9 105,87.7 		" />
			<path class="st0" d="M167.5,40.5l-14.1-8.4l0.5,8.4l8.1,2.6L167.5,40.5z" />
			<path class="st0" d="M100.7,72.9c0.9-0.6,2-1,3.1-1.2c1.4-7.7,6.6-16,12.8-19.7c1.6-1,3.4-1.6,5.3-1.8c0.9-9.4,7.2-20,14.8-24.6
			c4-2.4,7.7-2.7,10.3-1.2l0,0l0.1,0.1l0.2,0.1l8.3,5.1l-2.8,2.2c2.5,1.1,4.1,4,4.1,8.3c0,7.9-5.3,17.4-11.9,21.3l-44.3,32.7
			c-4.9,2.9-8.9,0.6-8.9-5.3S95.8,75.8,100.7,72.9z" />
			<path class="st0" d="M156.6,36.7l-19.1-11.5c3.7-2,7.1-2.2,9.6-0.8l0,0l0.1,0.1l0.2,0.1l8.3,5.1l-2.8,2.2
			C154.8,32.8,156.2,34.6,156.6,36.7z" />
			<path class="st0"
				d="M121.3,70.7l-14-8.5c2.4-4.3,5.7-8,9.4-10.2c0.5-0.3,1-0.5,1.4-0.8L135.9,62L121.3,70.7z" />
			<path class="st2"
				d="M151.8,30.6l-6.2,3.7l-11.4-6.9c0.8-0.7,1.7-1.3,2.6-1.8c1.2-0.8,2.6-1.3,4-1.7L151.8,30.6z" />
			<path class="st2" d="M108.8,59.7l11.1,6.8l-3.9,4.5L106,64.8C106.8,63,107.8,61.3,108.8,59.7z" />
			<path class="st2" d="M109.5,78.2c0.9-0.6,2-1,3.1-1.2c1.4-7.7,6.6-16,12.9-19.7c1.6-1,3.4-1.6,5.3-1.8c0.9-9.4,7.2-20,14.8-24.6
			c8.2-4.9,14.9-0.9,14.9,8.9c0,0.3,0,0.7,0,1c6-2.9,10.7,0.4,10.7,7.7c0,7.9-5.3,17.4-11.9,21.3l-49.7,29.7c-5,2.9-9,0.6-9-5.4
			C100.5,88.2,104.5,81.1,109.5,78.2z" />
			<path class="st3"
				d="M160.4,40.8c0-0.3,0-0.7,0-1v0c3.3-1.3,6.2-0.7,8,1.4C166.4,39.5,163.6,39.3,160.4,40.8z" />
			<path class="st3" d="M108.8,77.4c0.9-0.6,2-1,3.1-1.2c1.4-7.7,6.6-16,12.8-19.7c1.6-1,3.4-1.6,5.3-1.8c0.9-9.4,7.2-20,14.8-24.6
			c5.1-3.1,9.7-2.7,12.4,0.4c-2.7-2.4-6.9-2.6-11.6,0.3c-7.7,4.6-14,15.2-14.8,24.6c-1.9,0.2-3.7,0.8-5.3,1.8
			C119.2,61,114,69.3,112.6,77c-1.1,0.2-2.1,0.6-3.1,1.2c-5,2.9-9,10.1-9,16c-0.1,1.8,0.4,3.5,1.4,4.9c-1.3-1.1-2.2-3-2.2-5.7
			C99.8,87.6,103.8,80.4,108.8,77.4z" />
			<path class="st1" d="M161.4,43.1l-3.7,1.8l0.2-4.3c0-0.3,0-0.6,0-0.9c0-3.8-1.1-6.5-3.1-7.7s-4.9-0.9-8,1.1
			c-6.8,4.1-12.8,14-13.6,22.6l-0.2,2.2l-2.1,0.2c-1.5,0.2-2.9,0.7-4.1,1.5c-5.4,3.2-10.3,10.8-11.6,17.9l-0.3,1.8l-1.7,0.3
			c-0.8,0.1-1.5,0.4-2.2,0.9c-4.2,2.5-7.7,8.8-7.7,13.8c0,1.9,0.5,3.2,1.4,3.8c0.9,0.5,2.3,0.3,3.8-0.6l49.7-29.7
			c5.8-3.4,10.7-12.2,10.7-19.1c0-2.7-0.8-4.8-2.1-5.7c-0.6-0.4-1.3-0.6-2-0.5C163.5,42.3,162.4,42.6,161.4,43.1z" />
			<polygon class="st0" points="136.6,75.3 135.3,74.6 136.6,73.6 		" />
			<polygon class="st0" points="140.6,57 139.3,56.4 139.3,57.1 		" />
			<polygon class="st0" points="132.9,71.1 131.5,70.4 134.1,67.9 		" />
			<path class="st0"
				d="M135.7,74.6l6.2-3.8c0.3-0.2,0.6-0.6,0.6-1.1v-7.4l-7.3,4.5v7.4C135.1,74.6,135.4,74.8,135.7,74.6z" />
			<path class="st0" d="M139.3,56.4l6.7,4.5c0.3,0.2,0.1,0.9-0.4,1.2l-6.8,4.2l-6.8,4.2c-0.4,0.3-0.7-0.2-0.4-0.7l6.7-12.6
			C138.5,56.5,139,56.2,139.3,56.4z" />
			<path class="st2"
				d="M137,75.3l6.2-3.8c0.3-0.3,0.6-0.7,0.6-1.1V63l-7.3,4.5v7.4C136.5,75.3,136.7,75.5,137,75.3z" />
			<path class="st2" d="M140.6,57.1l6.7,4.5c0.3,0.2,0.1,0.9-0.4,1.2l-6.8,4.2l-6.8,4.2c-0.4,0.3-0.7-0.2-0.4-0.7l6.7-12.6
			C139.8,57.2,140.3,56.9,140.6,57.1z" />
			<path class="st2" d="M148.9,83.4c0,0.4,0.3,0.6,0.6,0.4c0.4-0.3,0.6-0.7,0.6-1.1c0-0.4-0.3-0.6-0.6-0.4
			C149.2,82.5,149,83,148.9,83.4z" />
			<path class="st2" d="M126,96.9c0,0.4,0.3,0.6,0.6,0.4c0.4-0.3,0.6-0.7,0.6-1.1c0-0.4-0.3-0.6-0.6-0.4C126.3,96,126,96.5,126,96.9z
			" />
			<path class="st4" d="M276.4,200l14.3-8.5c6-3.6,6-9.3,0-12.9l-13-7.7c-2.7-1.6-2.7-4.2,0-5.8l11.3-6.8c6-3.6,6-9.4,0-12.9
			l-14.2-8.5c-6-3.6-15.6-3.6-21.6,0l-9.2,5.4l6,3.6l9.2-5.4c3-1.6,6.6-1.6,9.7,0L283,149c2.7,1.6,2.7,4.2,0,5.8l-11.3,6.8
			c-6,3.6-6,9.4,0,12.9l13,7.7c2.7,1.6,2.7,4.2,0,5.8l-14.3,8.5L276.4,200z" />
			<path class="st0" d="M295,178.3l0.2-0.3v1.5l0,0c0.1,2.4-1.4,4.8-4.5,6.6l-14.3,8.5l-6-3.6l14.3-8.5c0.7-0.4,1.3-1,1.7-1.7
			c3.2-0.2,5.7-2,7.9-4.1C294.6,177.2,294.8,177.7,295,178.3z" />
			<path class="st5" d="M253.2,131.5c6-3.6,15.6-3.6,21.6,0L289,140c1.5,0.8,2.8,2.1,3.7,3.6c-2.3,2.2-4.6,4.7-8.1,4.3
			c1-1.5,0.5-3.2-1.5-4.4l-14.2-8.5c-3-1.6-6.6-1.6-9.7,0l-9.2,5.4l-6-3.6L253.2,131.5z" />
			<path class="st0" d="M269.4,157.8c0.7-0.7,1.5-1.3,2.3-1.8l11.3-6.8c0.6-0.3,1.1-0.8,1.5-1.4c3.6,0.4,5.8-2.1,8.1-4.3
			c0.2,0.5,0.4,0.9,0.6,1.4l0.2-0.2v1.6l0,0c0,2.3-1.5,4.7-4.5,6.5l-11.3,6.8c-1.7,1-2.3,2.5-1.8,3.8
			C273.5,162.8,271.7,159.8,269.4,157.8z" />
			<path class="st5" d="M267.4,161.1c0.3-1.3,1-2.4,2-3.3c2.3,2,4.1,5,6.5,5.6c0.4,0.8,1,1.5,1.8,1.9l13,7.7c1.5,0.8,2.8,2.1,3.7,3.6
			c-2.3,2.1-4.8,3.8-7.9,4.1c0.7-1.4,0.2-3-1.7-4.1l-13-7.7c-3-1.8-4.4-4.1-4.5-6.4l0,0v-1.6L267.4,161.1z" />
			<path class="st3" d="M289,151.2l-11.3,6.8c-1,0.5-1.7,1.4-2,2.6c-0.2-1.1,0.5-2.3,2-3.2l11.3-6.8c2.8-1.7,4.3-3.9,4.4-6.1
			C293.6,146.9,292.1,149.3,289,151.2z" />
			<path class="st3" d="M276.4,192.2l14.3-8.5c2.8-1.7,4.3-3.9,4.4-6.1c0.1,2.4-1.3,4.9-4.4,6.8l-14.3,8.5l-6-3.6l0.6-0.3
			L276.4,192.2z" />
			<path class="st3" d="M250,138.2l9.2-5.4c3-1.6,6.6-1.6,9.7,0l14.2,8.5c1.5,0.9,2.1,2.1,2,3.2c-0.2-1.1-1-2.1-2-2.6l-14.2-8.5
			c-3-1.6-6.6-1.6-9.7,0l-9.2,5.4l-6-3.6l0.5-0.3L250,138.2z" />
			<path class="st3" d="M271.7,166.6l13,7.7c1.5,0.9,2.1,2.1,2,3.2c-0.2-1.1-1-2.1-2-2.6l-13-7.7c-3.1-1.9-4.6-4.3-4.4-6.8
			C267.4,162.7,268.9,164.9,271.7,166.6z" />
			<path class="st2" d="M276.4,192.9l14.3-8.5c6-3.6,6-9.4,0-12.9l-13-7.7c-2.7-1.6-2.7-4.2,0-5.8l11.3-6.8c6-3.6,6-9.4,0-12.9
			l-14.2-8.5c-6-3.6-15.6-3.6-21.6,0l-9.2,5.4l6,3.6l9.2-5.4c3-1.6,6.6-1.6,9.7,0l14.2,8.4c2.7,1.6,2.7,4.2,0,5.8l-11.3,6.8
			c-6,3.6-6,9.3,0,12.9l13,7.7c2.7,1.6,2.7,4.2,0,5.8l-14.3,8.5L276.4,192.9z" />
			<path class="st0" d="M269.2,188.1L269.2,188.1c0.3-0.2,0.7-0.2,1,0.1l6.6,3.9c0.8,0.6,1.3,1.5,1.4,2.5c0,0.3-0.1,0.6-0.4,0.9
			l-7.1,4.3l-8.5-7.4L269.2,188.1z" />
			<path class="st0" d="M263.2,192.4l6.6,4c0.8,0.6,1.3,1.5,1.4,2.5c0,0.9-0.6,1.3-1.4,0.9l-6.6-3.9c-0.8-0.6-1.3-1.5-1.4-2.5
			C261.9,192.3,262.5,191.9,263.2,192.4z" />
			<path class="st0" d="M250.8,128.8L250.8,128.8c0.3-0.2,0.7-0.2,1,0.1l6.6,3.9c0.8,0.6,1.3,1.5,1.4,2.5c0,0.3-0.1,0.6-0.4,0.9
			l-7.1,4.3l-8.5-7.4L250.8,128.8z" />
			<path class="st4" d="M219.2,182.5l34.2-20.1c1.2-0.7,1.1-2.1-0.4-2.9l-19.7-11.7c-1.5-0.9-3.3-0.9-4.9-0.2l-34.2,20.1
			c-1.2,0.7-1.1,2.1,0.3,2.9l19.7,11.7C215.8,183.2,217.6,183.3,219.2,182.5z" />
			<path class="st1" d="M191.3,160.9L191.3,160.9V78.5l31.7-8.6l5.8-3.5c1.7-0.8,3.6-0.7,5.2,0.2l5.5,3.3h16.9l-5,79.6
			c0,0.6-0.3,1.2-0.9,1.4l-31.7,24.7c-1.7,0.8-3.6,0.7-5.2-0.2l-21.1-12.6C191.8,162.5,191.3,161.7,191.3,160.9z" />
			<path class="st2" d="M231.2,65.9c1,0,1.9,0.3,2.8,0.8l5.5,3.3h16.9v82.6c0,0.6-0.3,1.2-0.9,1.4l-36.7,21.6
			c-0.7,0.4-1.6,0.6-2.4,0.5l-0.3-83.2L231.2,65.9z" />
			<path class="st0" d="M218.5,175.7c-1.4,0.5-2.8,0.5-4.2,0V92h4.2V175.7z" />
			<path class="st2" d="M218.8,93l36.7-21.6c1.3-0.8,1.2-2.2-0.4-3.1L234,55.7c-1.6-0.9-3.6-1-5.2-0.2L192.1,77
			c-1.3,0.8-1.2,2.2,0.4,3.1l21.1,12.6C215.2,93.7,217.2,93.7,218.8,93z" />
			<path class="st6" d="M192.5,78.6l21.1,12.6c1.6,0.9,3.6,1,5.2,0.2l36.7-21.6c0.3-0.1,0.5-0.4,0.7-0.6c0.4,0.7,0.2,1.6-0.5,2
			c-0.1,0-0.1,0.1-0.2,0.1L218.8,93c-1.7,0.8-3.6,0.7-5.2-0.2l-21.1-12.6c-1.2-0.7-1.6-1.7-1-2.5C191.7,78.1,192.1,78.4,192.5,78.6z
			" />
			<path class="st5" d="M217.8,84.2l24.4-14.6c0.6-0.4,0.6-1-0.2-1.5l-9.9-5.9c-0.8-0.4-1.7-0.5-2.5-0.1l-24.4,14.6
			c-0.6,0.4-0.5,1,0.2,1.5l9.9,5.9C216.1,84.5,217,84.6,217.8,84.2z" />
			<path class="st2" d="M231,70.2l1.4-0.9c0.1-0.1,0.1-0.1,0-0.2l-1.4-0.9c-0.1-0.1-0.2-0.1-0.3,0l-1.4,0.9c-0.1,0.1-0.1,0.1,0,0.2
			l1.4,0.8C230.8,70.3,230.9,70.3,231,70.2z" />
			<path class="st2" d="M226.3,73l1.4-0.9c0.1-0.1,0.1-0.1,0-0.2l-1.4-0.8c-0.1-0.1-0.2-0.1-0.3,0l-1.4,0.9c-0.1,0.1-0.1,0.1,0,0.2
			l1.4,0.9C226,73.1,226.2,73.1,226.3,73z" />
			<path class="st2" d="M221.5,75.9L223,75c0.1-0.1,0.1-0.1,0-0.2l-1.4-0.8c-0.1-0.1-0.2-0.1-0.3,0l-1.4,0.9c-0.1,0.1-0.1,0.1,0,0.2
			l1.4,0.9C221.3,75.9,221.4,75.9,221.5,75.9z" />
			<path class="st2" d="M216.8,78.7l1.4-0.9c0.1-0.1,0.1-0.1,0-0.2l-1.4-0.9c-0.1-0.1-0.2-0.1-0.3,0l-1.4,0.9c-0.1,0.1-0.1,0.1,0,0.2
			l1.4,0.9C216.6,78.7,216.7,78.7,216.8,78.7z" />
			<path class="st0" d="M242.2,69.6L242.2,69.6c0,0-0.1-0.1-0.1-0.1l-9.9-5.9c-0.8-0.4-1.7-0.5-2.5-0.1l-24.4,14.6
			c-0.6-0.4-0.6-1,0-1.4l24.4-14.6c0.8-0.4,1.7-0.3,2.5,0.1l9.9,5.9C242.8,68.6,242.8,69.2,242.2,69.6z" />
			<path class="st5" d="M209.5,109.3l-13.8-8.2c-0.9-0.7-1.4-1.7-1.4-2.8v-5.1c0-1.1,0.6-1.6,1.4-1.1l13.9,8.2
			c0.9,0.7,1.4,1.7,1.4,2.8v5.1C210.9,109.3,210.3,109.8,209.5,109.3z" />
			<path class="st3" d="M194.9,91.9c-0.3,0.3-0.4,0.7-0.4,1.1v5.1c0,1.1,0.5,2.1,1.4,2.8l13.9,8.2c0.2,0.1,0.4,0.2,0.7,0.2
			c-0.3,0.2-0.8,0.2-1.1,0l-13.8-8.2c-0.9-0.7-1.4-1.7-1.4-2.8v-5.1C194.2,92.4,194.5,92,194.9,91.9z" />
			<path class="st1" d="M205.3,103.7l-1.3-0.8c-0.2-0.1-0.3-0.4-0.3-0.6V101c0-0.2,0.1-0.3,0.3-0.2l1.3,0.8c0.2,0.1,0.3,0.4,0.3,0.6
			v1.4C205.6,103.7,205.5,103.8,205.3,103.7z" />
			<path class="st3" d="M201.1,101.2l-1.3-0.8c-0.2-0.1-0.3-0.4-0.3-0.6v-1.4c0-0.2,0.1-0.3,0.3-0.2l1.3,0.8c0.2,0.1,0.3,0.4,0.3,0.6
			v1.4C201.4,101.2,201.2,101.3,201.1,101.2z" />
			<path class="st5" d="M209.5,146.3l-13.8-8.2c-0.9-0.7-1.4-1.7-1.4-2.8v-5.1c0-1.1,0.6-1.6,1.4-1.1l13.9,8.2
			c0.9,0.7,1.4,1.7,1.4,2.8v5.1C210.9,146.3,210.3,146.8,209.5,146.3z" />
			<path class="st3" d="M194.9,128.9c-0.3,0.3-0.4,0.7-0.4,1.1v5.1c0,1.1,0.5,2.1,1.4,2.8l13.9,8.2c0.2,0.1,0.4,0.2,0.7,0.2
			c-0.3,0.2-0.8,0.2-1.1,0l-13.8-8.1c-0.9-0.7-1.4-1.7-1.4-2.8v-5.1C194.2,129.5,194.5,129.1,194.9,128.9z" />
			<path class="st1" d="M205.3,140.8l-1.3-0.8c-0.2-0.1-0.3-0.4-0.3-0.6V138c0-0.2,0.1-0.3,0.3-0.2l1.3,0.8c0.2,0.1,0.3,0.4,0.3,0.6
			v1.4C205.6,140.8,205.5,140.9,205.3,140.8z" />
			<path class="st3" d="M201.1,138.2l-1.3-0.8c-0.2-0.1-0.3-0.4-0.3-0.6v-1.4c0-0.2,0.1-0.3,0.3-0.2l1.3,0.8c0.2,0.1,0.3,0.4,0.3,0.6
			v1.4C201.4,138.2,201.2,138.3,201.1,138.2z" />
			<path class="st5" d="M209.5,164.8l-13.8-8.2c-0.9-0.7-1.4-1.7-1.4-2.8v-5.1c0-1.1,0.6-1.6,1.4-1.1l13.9,8.2
			c0.9,0.7,1.4,1.7,1.4,2.8v5.1C210.9,164.8,210.3,165.3,209.5,164.8z" />
			<path class="st3" d="M194.9,147.5c-0.3,0.3-0.4,0.7-0.4,1.1v5.1c0,1.1,0.5,2.1,1.4,2.8l13.9,8.2c0.2,0.1,0.4,0.2,0.7,0.2
			c-0.3,0.3-0.7,0.3-1.1,0l-13.8-8.2c-0.9-0.7-1.4-1.7-1.4-2.8v-5.1C194.2,148,194.5,147.5,194.9,147.5z" />
			<path class="st1" d="M205.3,159.3l-1.3-0.8c-0.2-0.1-0.3-0.4-0.3-0.6v-1.4c0-0.2,0.1-0.3,0.3-0.2l1.3,0.8c0.2,0.1,0.3,0.4,0.3,0.6
			v1.4C205.6,159.3,205.5,159.4,205.3,159.3z" />
			<path class="st3" d="M201.1,156.7l-1.3-0.8c-0.2-0.1-0.3-0.4-0.3-0.6V154c0-0.2,0.1-0.3,0.3-0.2l1.3,0.8c0.2,0.1,0.3,0.4,0.3,0.6
			v1.4C201.4,156.7,201.2,156.8,201.1,156.7z" />
			<path class="st5" d="M209.5,127.8l-13.8-8.2c-0.9-0.7-1.4-1.7-1.4-2.8v-5.1c0-1.1,0.6-1.6,1.4-1.1l13.9,8.2
			c0.9,0.7,1.4,1.7,1.4,2.8v5.1C210.9,127.8,210.3,128.3,209.5,127.8z" />
			<path class="st3" d="M194.9,110.4c-0.3,0.3-0.4,0.7-0.4,1.1v5.1c0,1.1,0.5,2.1,1.4,2.8l13.9,8.2c0.2,0.1,0.4,0.2,0.7,0.2
			c-0.3,0.2-0.8,0.2-1.1,0l-13.8-8.2c-0.9-0.7-1.4-1.7-1.4-2.8v-5.1C194.2,111,194.5,110.5,194.9,110.4z" />
			<path class="st1" d="M205.3,122.3l-1.3-0.8c-0.2-0.1-0.3-0.4-0.3-0.6v-1.4c0-0.2,0.1-0.3,0.3-0.2l1.3,0.8c0.2,0.1,0.3,0.4,0.3,0.6
			v1.4C205.6,122.3,205.5,122.3,205.3,122.3z" />
			<path class="st3" d="M201.1,119.7l-1.3-0.8c-0.2-0.1-0.3-0.4-0.3-0.6v-1.4c0-0.2,0.1-0.3,0.3-0.2l1.3,0.8c0.2,0.1,0.3,0.4,0.3,0.6
			v1.4C201.4,119.7,201.2,119.8,201.1,119.7z" />
			<path class="st0" d="M221.5,104l32-19.1c0.8-0.6,1.3-1.5,1.3-2.6v-6.3c0-1-0.6-1.4-1.3-1l-32,19.1c-0.8,0.6-1.3,1.5-1.3,2.6v6.3
			C220.2,104,220.8,104.5,221.5,104z" />
			<path class="st7" d="M222.4,101.8l30.2-18c0.4-0.3,0.7-0.8,0.7-1.3v-4.7c0-0.5-0.3-0.7-0.7-0.5l-30.2,18c-0.4,0.3-0.7,0.8-0.7,1.3
			v4.7C221.8,101.8,222,102,222.4,101.8z" />
			<path class="st2" d="M246.3,85.2l4.5-2.7c0.4-0.3,0.6-0.8,0.6-1.3l0,0c0-0.5-0.3-0.7-0.6-0.5l-4.5,2.7c-0.4,0.3-0.6,0.8-0.6,1.3
			l0,0C245.7,85.2,246,85.4,246.3,85.2z" />
			<path class="st5" d="M242.5,86.6c0,0.5,0.3,0.7,0.7,0.4c0.4-0.3,0.7-0.8,0.7-1.3c0-0.5-0.3-0.7-0.7-0.4
			C242.8,85.6,242.5,86.1,242.5,86.6z" />
			<path class="st5" d="M239.9,88.2c0,0.5,0.3,0.7,0.7,0.4c0.4-0.3,0.7-0.8,0.7-1.3c0-0.5-0.3-0.7-0.7-0.4
			C240.2,87.2,239.9,87.7,239.9,88.2z" />
			<path class="st2" d="M237.3,89.7c0,0.5,0.3,0.7,0.7,0.4c0.4-0.3,0.7-0.8,0.7-1.3c0-0.5-0.3-0.7-0.7-0.4
			C237.6,88.7,237.3,89.2,237.3,89.7z" />
			<path class="st5" d="M234.7,91.2c0,0.5,0.3,0.7,0.7,0.4c0.4-0.3,0.7-0.8,0.7-1.3c0-0.5-0.3-0.7-0.7-0.4
			C235,90.2,234.7,90.7,234.7,91.2z" />
			<path class="st5" d="M223.8,99.2l1.5-0.9c0.3-0.2,0.4-0.5,0.4-0.8v-1.6c0-0.3-0.2-0.5-0.4-0.3l-1.5,0.9c-0.3,0.2-0.4,0.5-0.4,0.9
			V99C223.3,99.2,223.5,99.3,223.8,99.2z" />
			<path class="st0" d="M221.5,115.2l32-19.1c0.8-0.6,1.3-1.5,1.3-2.6v-6.3c0-1-0.6-1.4-1.3-1l-32,19.1c-0.8,0.6-1.3,1.5-1.3,2.6v6.3
			C220.2,115.1,220.8,115.6,221.5,115.2z" />
			<path class="st7" d="M222.4,112.9l30.2-18c0.4-0.3,0.7-0.8,0.7-1.3v-4.7c0-0.5-0.3-0.7-0.7-0.5l-30.2,18c-0.4,0.3-0.7,0.8-0.7,1.3
			v4.7C221.8,112.9,222,113.2,222.4,112.9z" />
			<path class="st2" d="M246.3,96.3l4.5-2.7c0.4-0.3,0.6-0.8,0.6-1.3l0,0c0-0.5-0.3-0.7-0.6-0.5l-4.5,2.7c-0.4,0.3-0.6,0.8-0.6,1.3
			l0,0C245.7,96.3,246,96.5,246.3,96.3z" />
			<path class="st3" d="M242.5,97.7c0,0.5,0.3,0.7,0.7,0.4c0.4-0.3,0.7-0.8,0.7-1.3c0-0.5-0.3-0.7-0.7-0.4
			C242.8,96.7,242.5,97.2,242.5,97.7z" />
			<path class="st5" d="M239.9,99.3c0,0.5,0.3,0.7,0.7,0.4c0.4-0.3,0.7-0.8,0.7-1.3c0-0.5-0.3-0.7-0.7-0.4
			C240.2,98.2,239.9,98.7,239.9,99.3z" />
			<path class="st2" d="M237.3,100.8c0,0.5,0.3,0.7,0.7,0.4c0.4-0.3,0.7-0.8,0.7-1.3c0-0.5-0.3-0.7-0.7-0.4
			C237.6,99.8,237.3,100.3,237.3,100.8z" />
			<path class="st5" d="M234.7,102.4c0,0.5,0.3,0.7,0.7,0.4c0.4-0.3,0.7-0.8,0.7-1.3c0-0.5-0.3-0.7-0.7-0.4
			C235,101.4,234.7,101.8,234.7,102.4z" />
			<path class="st5" d="M223.8,110.3l1.5-0.9c0.3-0.2,0.4-0.5,0.4-0.9v-1.7c0-0.3-0.2-0.5-0.4-0.3l-1.5,0.9c-0.3,0.2-0.4,0.5-0.4,0.9
			v1.7C223.3,110.3,223.5,110.4,223.8,110.3z" />
			<path class="st0" d="M221.5,126.3l32-19.1c0.8-0.6,1.3-1.5,1.3-2.6v-6.3c0-1-0.6-1.4-1.3-1l-32,19.1c-0.8,0.6-1.3,1.5-1.3,2.6v6.3
			C220.2,126.3,220.8,126.7,221.5,126.3z" />
			<path class="st7" d="M222.4,124.1l30.2-18c0.4-0.3,0.7-0.8,0.7-1.3V100c0-0.5-0.3-0.7-0.7-0.5l-30.2,18c-0.4,0.3-0.7,0.8-0.7,1.3
			v4.7C221.8,124.1,222,124.3,222.4,124.1z" />
			<path class="st2" d="M246.3,107.4l4.5-2.7c0.4-0.3,0.6-0.8,0.6-1.3l0,0c0-0.5-0.3-0.7-0.6-0.5l-4.5,2.7c-0.4,0.3-0.6,0.8-0.6,1.3
			l0,0C245.7,107.4,246,107.6,246.3,107.4z" />
			<path class="st3" d="M242.5,108.8c0,0.5,0.3,0.7,0.7,0.4c0.4-0.3,0.7-0.8,0.7-1.3c0-0.5-0.3-0.7-0.7-0.4
			C242.8,107.8,242.5,108.3,242.5,108.8z" />
			<path class="st5" d="M239.9,110.4c0,0.5,0.3,0.7,0.7,0.4c0.4-0.3,0.7-0.8,0.7-1.3c0-0.5-0.3-0.7-0.7-0.4
			C240.2,109.4,239.9,109.9,239.9,110.4z" />
			<path class="st2" d="M237.3,111.9c0,0.5,0.3,0.7,0.7,0.4c0.4-0.3,0.7-0.8,0.7-1.3c0-0.5-0.3-0.7-0.7-0.4
			C237.6,110.9,237.3,111.4,237.3,111.9z" />
			<path class="st5" d="M234.7,113.5c0,0.5,0.3,0.7,0.7,0.4c0.4-0.3,0.7-0.8,0.7-1.3c0-0.5-0.3-0.7-0.7-0.4
			C235,112.5,234.7,113,234.7,113.5z" />
			<path class="st5" d="M223.8,121.4l1.5-0.9c0.3-0.2,0.4-0.5,0.4-0.9v-1.7c0-0.3-0.2-0.5-0.4-0.3l-1.5,1c-0.3,0.2-0.4,0.5-0.4,0.8
			v1.7C223.3,121.4,223.5,121.6,223.8,121.4z" />
			<path class="st0" d="M221.5,137.4l32-19.1c0.8-0.6,1.3-1.5,1.3-2.6v-6.3c0-1-0.6-1.4-1.3-1l-32,19.1c-0.8,0.6-1.3,1.5-1.3,2.6v6.3
			C220.2,137.4,220.8,137.8,221.5,137.4z" />
			<path class="st7" d="M222.4,135.2l30.2-18c0.4-0.3,0.7-0.8,0.7-1.3v-4.7c0-0.5-0.3-0.7-0.7-0.5l-30.2,18c-0.4,0.3-0.7,0.8-0.7,1.3
			v4.7C221.8,135.2,222,135.4,222.4,135.2z" />
			<path class="st2" d="M246.3,118.5l4.5-2.7c0.4-0.3,0.6-0.8,0.6-1.3l0,0c0-0.5-0.3-0.7-0.6-0.5l-4.5,2.7c-0.4,0.3-0.6,0.8-0.6,1.3
			l0,0C245.7,118.5,246,118.8,246.3,118.5z" />
			<path class="st5" d="M242.5,120c0,0.5,0.3,0.7,0.7,0.4c0.4-0.3,0.7-0.8,0.7-1.3c0-0.5-0.3-0.7-0.7-0.4
			C242.8,118.9,242.5,119.4,242.5,120z" />
			<path class="st5" d="M239.9,121.5c0,0.5,0.3,0.7,0.7,0.4c0.4-0.3,0.7-0.8,0.7-1.3c0-0.5-0.3-0.7-0.7-0.4
			C240.2,120.5,239.9,121,239.9,121.5z" />
			<path class="st2" d="M237.3,123.1c0,0.5,0.3,0.7,0.7,0.4c0.4-0.3,0.7-0.8,0.7-1.3c0-0.5-0.3-0.7-0.7-0.4
			C237.6,122.1,237.3,122.6,237.3,123.1z" />
			<path class="st5" d="M234.7,124.6c0,0.5,0.3,0.7,0.7,0.4c0.4-0.3,0.7-0.8,0.7-1.3c0-0.5-0.3-0.7-0.7-0.4
			C235,123.6,234.7,124.1,234.7,124.6z" />
			<path class="st2" d="M223.8,132.5l1.5-0.9c0.3-0.2,0.4-0.5,0.4-0.9v-1.7c0-0.3-0.2-0.5-0.4-0.3l-1.5,1c-0.3,0.2-0.4,0.5-0.4,0.9
			v1.7C223.3,132.5,223.5,132.7,223.8,132.5z" />
			<path class="st0" d="M221.5,148.5l32-19.1c0.8-0.6,1.3-1.5,1.3-2.6v-6.3c0-1-0.6-1.4-1.3-1l-32,19.1c-0.8,0.6-1.3,1.5-1.3,2.6v6.3
			C220.2,148.5,220.8,149,221.5,148.5z" />
			<path class="st7" d="M222.4,146.3l30.2-18c0.4-0.3,0.7-0.8,0.7-1.3v-4.8c0-0.5-0.3-0.7-0.7-0.5l-30.2,18c-0.4,0.3-0.7,0.8-0.7,1.3
			v4.7C221.8,146.3,222,146.5,222.4,146.3z" />
			<path class="st2" d="M246.3,129.7l4.5-2.7c0.4-0.3,0.6-0.8,0.6-1.3l0,0c0-0.5-0.3-0.7-0.6-0.5l-4.5,2.7c-0.4,0.3-0.6,0.8-0.6,1.3
			l0,0C245.7,129.7,246,129.9,246.3,129.7z" />
			<path class="st5" d="M242.5,131.1c0,0.5,0.3,0.7,0.7,0.4c0.4-0.3,0.7-0.8,0.7-1.3c0-0.5-0.3-0.7-0.7-0.4
			C242.8,130.1,242.5,130.5,242.5,131.1z" />
			<path class="st3" d="M239.9,132.6c0,0.5,0.3,0.7,0.7,0.4c0.4-0.3,0.7-0.8,0.7-1.3c0-0.5-0.3-0.7-0.7-0.4
			C240.2,131.6,239.9,132.1,239.9,132.6z" />
			<path class="st2" d="M237.3,134.2c0,0.5,0.3,0.7,0.7,0.4c0.4-0.3,0.7-0.8,0.7-1.3c0-0.5-0.3-0.7-0.7-0.4
			C237.6,133.2,237.3,133.6,237.3,134.2z" />
			<path class="st3" d="M234.7,135.7c0,0.5,0.3,0.7,0.7,0.4c0.4-0.3,0.7-0.8,0.7-1.3c0-0.5-0.3-0.7-0.7-0.4
			C235,134.7,234.7,135.2,234.7,135.7z" />
			<path class="st2" d="M223.8,143.7l1.5-0.9c0.3-0.2,0.4-0.5,0.4-0.9v-1.7c0-0.3-0.2-0.5-0.4-0.3l-1.5,1c-0.3,0.2-0.4,0.5-0.4,0.9
			v1.7C223.3,143.7,223.5,143.8,223.8,143.7z" />
			<path class="st0" d="M221.5,159.6l32-19.1c0.8-0.6,1.3-1.5,1.3-2.6v-6.3c0-1-0.6-1.4-1.3-1l-32,19.1c-0.8,0.6-1.3,1.5-1.3,2.6v6.3
			C220.2,159.6,220.8,160.1,221.5,159.6z" />
			<path class="st7" d="M222.4,157.4l30.2-18c0.4-0.3,0.7-0.8,0.7-1.3v-4.7c0-0.5-0.3-0.7-0.7-0.5l-30.2,18c-0.4,0.3-0.7,0.8-0.7,1.3
			v4.7C221.8,157.4,222,157.6,222.4,157.4z" />
			<path class="st2" d="M246.3,140.8l4.5-2.7c0.4-0.3,0.6-0.8,0.6-1.3l0,0c0-0.5-0.3-0.7-0.6-0.5l-4.5,2.7c-0.4,0.3-0.6,0.8-0.6,1.3
			l0,0C245.7,140.8,246,141,246.3,140.8z" />
			<path class="st5" d="M242.5,142.2c0,0.5,0.3,0.7,0.7,0.4c0.4-0.3,0.7-0.8,0.7-1.3c0-0.5-0.3-0.7-0.7-0.4
			C242.8,141.2,242.5,141.7,242.5,142.2z" />
			<path class="st5" d="M239.9,143.7c0,0.5,0.3,0.7,0.7,0.4c0.4-0.3,0.7-0.8,0.7-1.3c0-0.5-0.3-0.7-0.7-0.4
			C240.2,142.7,239.9,143.2,239.9,143.7z" />
			<path class="st2" d="M237.3,145.3c0,0.5,0.3,0.7,0.7,0.4c0.4-0.3,0.7-0.8,0.7-1.3c0-0.5-0.3-0.7-0.7-0.4
			C237.6,144.3,237.3,144.8,237.3,145.3z" />
			<path class="st5" d="M234.7,146.9c0,0.5,0.3,0.7,0.7,0.4c0.4-0.3,0.7-0.8,0.7-1.3c0-0.5-0.3-0.7-0.7-0.4
			C235,145.8,234.7,146.3,234.7,146.9z" />
			<path class="st5" d="M223.8,154.8l1.5-0.9c0.3-0.2,0.4-0.5,0.4-0.9v-1.7c0-0.3-0.2-0.5-0.4-0.3l-1.5,1c-0.3,0.2-0.4,0.5-0.4,0.8
			v1.7C223.3,154.8,223.5,154.9,223.8,154.8z" />
			<path class="st0" d="M221.5,170.8l32-19.1c0.8-0.6,1.3-1.5,1.3-2.6v-6.3c0-1-0.6-1.4-1.3-1l-32,19.1c-0.8,0.6-1.3,1.5-1.3,2.6v6.3
			C220.2,170.7,220.8,171.2,221.5,170.8z" />
			<path class="st7" d="M222.4,168.6l30.2-18c0.4-0.3,0.7-0.8,0.7-1.3v-4.7c0-0.5-0.3-0.7-0.7-0.5l-30.2,18c-0.4,0.3-0.7,0.8-0.7,1.3
			v4.7C221.8,168.5,222,168.8,222.4,168.6z" />
			<path class="st2" d="M246.3,151.9l4.5-2.7c0.4-0.3,0.6-0.8,0.6-1.3l0,0c0-0.5-0.3-0.7-0.6-0.5l-4.5,2.7c-0.4,0.3-0.6,0.8-0.6,1.3
			l0,0C245.7,151.9,246,152.1,246.3,151.9z" />
			<path class="st3" d="M241.6,153.9c0,0.9,0.6,1.3,1.4,0.9c0.8-0.6,1.4-1.5,1.4-2.5c0-0.9-0.6-1.3-1.4-0.9
			C242.2,152,241.7,152.9,241.6,153.9z" />
			<path class="st5" d="M236.3,157.2c0,0.5,0.3,0.7,0.7,0.4c0.4-0.3,0.7-0.8,0.7-1.3c0-0.5-0.3-0.7-0.7-0.4
			C236.6,156.1,236.3,156.6,236.3,157.2z" />
			<path class="st2" d="M233.7,158.7c0,0.5,0.3,0.7,0.7,0.4c0.4-0.3,0.7-0.8,0.7-1.3c0-0.5-0.3-0.7-0.7-0.4
			C234,157.7,233.7,158.2,233.7,158.7z" />
			<path class="st5" d="M231.1,160.3c0,0.5,0.3,0.7,0.7,0.4c0.4-0.3,0.7-0.8,0.7-1.3c0-0.5-0.3-0.7-0.7-0.4
			C231.4,159.3,231.1,159.8,231.1,160.3z" />
			<path class="st2" d="M223.8,165.9l1.5-0.9c0.3-0.2,0.4-0.5,0.4-0.9v-1.7c0-0.3-0.2-0.5-0.4-0.3l-1.5,1c-0.3,0.2-0.4,0.5-0.4,0.9
			v1.7C223.3,165.9,223.5,166.1,223.8,165.9z" />
			<path class="st4" d="M167.7,213.1l34.2-20.1c1.3-0.7,1.1-2-0.3-2.9l-19.7-11.7c-1.5-0.9-3.3-0.9-4.9-0.2l-34.2,20.1
			c-1.3,0.7-1.1,2,0.3,2.9l19.7,11.7C164.3,213.7,166.1,213.8,167.7,213.1z" />
			<path class="st1" d="M139.7,191.5L139.7,191.5V109l31.7-8.6l5.8-3.5c1.7-0.8,3.6-0.7,5.2,0.2l5.5,3.2h16.9l-5,79.6
			c0,0.6-0.3,1.2-0.9,1.4l-31.6,24.7c-1.7,0.8-3.6,0.7-5.2-0.2L141,193.4C140.3,193,139.8,192.3,139.7,191.5z" />
			<path class="st2" d="M179.7,96.4c1,0,1.9,0.3,2.8,0.8l5.5,3.2h16.9v82.6c0,0.6-0.3,1.2-0.9,1.4l-36.7,21.6
			c-0.7,0.4-1.6,0.6-2.4,0.5l-0.4-83.2L179.7,96.4z" />
			<path class="st0" d="M167,206.3c-1.4,0.5-2.8,0.5-4.2-0.1v-83.7h4.2V206.3z" />
			<path class="st2" d="M167.3,123.5l36.7-21.6c1.3-0.8,1.2-2.2-0.4-3.1l-21.1-12.6c-1.6-0.9-3.6-1-5.2-0.2l-36.6,21.6
			c-1.3,0.8-1.2,2.2,0.4,3.1l21.1,12.6C163.7,124.2,165.7,124.3,167.3,123.5z" />
			<path class="st6" d="M141,109.2l21.1,12.6c1.6,0.9,3.6,1,5.2,0.2l36.7-21.6c0.3-0.2,0.5-0.4,0.7-0.6c0.4,0.7,0.2,1.6-0.5,2
			c-0.1,0-0.1,0.1-0.2,0.1l-36.7,21.6c-1.7,0.8-3.6,0.7-5.2-0.2L141,110.7c-1.2-0.7-1.6-1.7-1-2.5C140.2,108.6,140.6,109,141,109.2z
			" />
			<path class="st5" d="M166.3,114.8l24.4-14.6c0.6-0.4,0.6-1-0.2-1.5l-9.9-5.9c-0.8-0.4-1.7-0.5-2.5-0.1l-24.4,14.6
			c-0.6,0.4-0.5,1,0.2,1.5l9.9,5.9C164.6,115.1,165.5,115.1,166.3,114.8z" />
			<path class="st2" d="M179.5,100.8l1.4-0.9c0.1-0.1,0.1-0.1,0-0.2l-1.4-0.9c-0.1-0.1-0.2-0.1-0.3,0l-1.4,0.9
			c-0.1,0.1-0.1,0.1,0,0.2l1.4,0.9C179.2,100.9,179.4,100.9,179.5,100.8z" />
			<path class="st2" d="M174.8,103.6l1.4-0.9c0.1-0.1,0.1-0.1,0-0.2l-1.4-0.9c-0.1-0.1-0.2-0.1-0.3,0l-1.4,0.9
			c-0.1,0.1-0.1,0.1,0,0.2l1.4,0.8C174.5,103.6,174.6,103.7,174.8,103.6z" />
			<path class="st2" d="M170,106.4l1.4-0.9c0.1-0.1,0.1-0.1,0-0.2l-1.4-0.9c-0.1-0.1-0.2-0.1-0.3,0l-1.4,0.9c-0.1,0.1-0.1,0.1,0,0.2
			l1.4,0.9C169.8,106.5,169.9,106.5,170,106.4z" />
			<path class="st2" d="M165.3,109.2l1.4-0.9c0.1-0.1,0.1-0.1,0-0.2l-1.4-0.9c-0.1-0.1-0.2-0.1-0.3,0l-1.4,0.9
			c-0.1,0.1-0.1,0.1,0,0.2l1.4,0.9C165.1,109.3,165.2,109.3,165.3,109.2z" />
			<path class="st0" d="M190.7,100.2L190.7,100.2l-0.2,0l-9.9-6c-0.8-0.4-1.7-0.5-2.5-0.1l-24.4,14.6c-0.6-0.4-0.6-1,0-1.4l24.4-14.6
			c0.8-0.4,1.7-0.3,2.5,0.1l9.9,5.9C191.3,99.1,191.3,99.8,190.7,100.2z" />
			<path class="st5" d="M158,139.9l-13.9-8.2c-0.9-0.7-1.4-1.7-1.4-2.8v-5.1c0-1.1,0.6-1.6,1.4-1.1l13.9,8.2c0.9,0.7,1.4,1.7,1.4,2.8
			v5.1C159.4,139.8,158.8,140.3,158,139.9z" />
			<path class="st3" d="M143.4,122.5c-0.3,0.3-0.4,0.7-0.4,1.1v5.1c0,1.1,0.5,2.1,1.4,2.8l13.9,8.2c0.2,0.1,0.4,0.2,0.7,0.2
			c-0.3,0.2-0.8,0.2-1.1,0l-13.9-8.2c-0.9-0.7-1.4-1.7-1.4-2.8v-5.1C142.7,123,143,122.5,143.4,122.5z" />
			<path class="st1" d="M153.8,134.3l-1.3-0.8c-0.2-0.1-0.3-0.4-0.3-0.6v-1.4c0-0.2,0.1-0.3,0.3-0.2l1.3,0.8c0.2,0.1,0.3,0.4,0.3,0.6
			v1.4C154.1,134.3,154,134.4,153.8,134.3z" />
			<path class="st3" d="M149.6,131.7l-1.3-0.8c-0.2-0.1-0.3-0.4-0.3-0.6V129c0-0.2,0.1-0.3,0.3-0.2l1.3,0.8c0.2,0.1,0.3,0.4,0.3,0.6
			v1.4C149.9,131.7,149.7,131.9,149.6,131.7z" />
			<path class="st5" d="M158,176.9l-13.9-8.2c-0.9-0.7-1.4-1.7-1.4-2.8v-5.1c0-1.1,0.6-1.6,1.4-1.1l13.9,8.2c0.9,0.7,1.4,1.7,1.4,2.8
			v5.1C159.4,176.9,158.8,177.4,158,176.9z" />
			<path class="st3" d="M143.4,159.5c-0.3,0.3-0.4,0.7-0.4,1.1v5.1c0,1.1,0.5,2.1,1.4,2.8l13.9,8.2c0.2,0.1,0.4,0.2,0.7,0.2
			c-0.3,0.2-0.8,0.2-1.1,0l-13.9-8.2c-0.9-0.7-1.4-1.7-1.4-2.8v-5.1C142.7,160,143,159.6,143.4,159.5z" />
			<path class="st1" d="M153.8,171.3l-1.3-0.8c-0.2-0.1-0.3-0.4-0.3-0.6v-1.4c0-0.2,0.1-0.3,0.3-0.2l1.3,0.8c0.2,0.1,0.3,0.4,0.3,0.6
			v1.4C154.1,171.3,154,171.4,153.8,171.3z" />
			<path class="st3" d="M149.6,168.8l-1.3-0.8c-0.2-0.1-0.3-0.4-0.3-0.6V166c0-0.2,0.1-0.3,0.3-0.2l1.3,0.8c0.2,0.1,0.3,0.4,0.3,0.6
			v1.4C149.9,168.8,149.7,168.9,149.6,168.8z" />
			<path class="st5" d="M158,195.4l-13.9-8.2c-0.9-0.7-1.4-1.7-1.4-2.8v-5.1c0-1.1,0.6-1.6,1.4-1.1l13.9,8.2c0.9,0.7,1.4,1.7,1.4,2.8
			v5.1C159.4,195.4,158.8,195.9,158,195.4z" />
			<path class="st3" d="M143.4,178c-0.3,0.3-0.4,0.7-0.4,1.1v5.1c0,1.1,0.5,2.1,1.4,2.8l13.9,8.2c0.2,0.1,0.4,0.2,0.7,0.2
			c-0.3,0.2-0.8,0.2-1.1,0l-13.9-8.2c-0.9-0.7-1.4-1.7-1.4-2.8v-5.1C142.7,178.6,143,178.1,143.4,178z" />
			<path class="st1" d="M153.8,189.9l-1.3-0.8c-0.2-0.1-0.3-0.4-0.3-0.6v-1.4c0-0.2,0.1-0.3,0.3-0.2l1.3,0.8c0.2,0.1,0.3,0.4,0.3,0.6
			v1.4C154.1,189.8,154,190,153.8,189.9z" />
			<path class="st3" d="M149.6,187.3l-1.3-0.8c-0.2-0.1-0.3-0.4-0.3-0.6v-1.4c0-0.2,0.1-0.3,0.3-0.2l1.3,0.8c0.2,0.1,0.3,0.4,0.3,0.6
			v1.4C149.9,187.3,149.7,187.4,149.6,187.3z" />
			<path class="st5" d="M158,158.4l-13.9-8.2c-0.9-0.7-1.4-1.7-1.4-2.8v-5.1c0-1.1,0.6-1.6,1.4-1.1l13.9,8.2c0.9,0.7,1.4,1.7,1.4,2.8
			v5.1C159.4,158.4,158.8,158.9,158,158.4z" />
			<path class="st3" d="M143.4,141c-0.3,0.3-0.4,0.7-0.4,1.1v5.1c0,1.1,0.5,2.1,1.4,2.8l13.9,8.2c0.2,0.1,0.4,0.2,0.7,0.2
			c-0.3,0.2-0.8,0.2-1.1,0l-13.9-8.2c-0.9-0.7-1.4-1.7-1.4-2.8v-5.1C142.7,141.5,143,141.1,143.4,141z" />
			<path class="st1" d="M153.8,152.8l-1.3-0.8c-0.2-0.1-0.3-0.4-0.3-0.6V150c0-0.2,0.1-0.3,0.3-0.2l1.3,0.8c0.2,0.1,0.3,0.4,0.3,0.6
			v1.4C154.1,152.8,154,152.9,153.8,152.8z" />
			<path class="st3" d="M149.6,150.3l-1.3-0.8c-0.2-0.1-0.3-0.4-0.3-0.6v-1.4c0-0.2,0.1-0.3,0.3-0.2l1.3,0.8c0.2,0.1,0.3,0.4,0.3,0.6
			v1.4C149.9,150.3,149.7,150.4,149.6,150.3z" />
			<path class="st0" d="M170,134.6l32-19.1c0.8-0.6,1.3-1.5,1.3-2.6v-6.3c0-1-0.6-1.4-1.3-1l-32,19.1c-0.8,0.6-1.3,1.5-1.3,2.6v6.3
			C168.7,134.6,169.2,135,170,134.6z" />
			<path class="st7" d="M171,132.4l30.2-18c0.4-0.3,0.7-0.8,0.7-1.3v-4.7c0-0.5-0.3-0.7-0.7-0.5l-30.2,18c-0.4,0.3-0.6,0.8-0.7,1.3
			v4.7C170.3,132.4,170.6,132.6,171,132.4z" />
			<path class="st2" d="M194.8,115.7l4.5-2.7c0.4-0.3,0.6-0.8,0.6-1.3l0,0c0-0.5-0.3-0.7-0.6-0.5l-4.5,2.7c-0.4,0.3-0.6,0.8-0.6,1.3
			l0,0C194.2,115.7,194.5,116,194.8,115.7z" />
			<path class="st5" d="M191,117.1c0,0.5,0.3,0.7,0.7,0.4c0.4-0.3,0.7-0.8,0.7-1.3c0-0.5-0.3-0.7-0.7-0.4
			C191.3,116.1,191,116.6,191,117.1z" />
			<path class="st5" d="M188.4,118.7c0,0.5,0.3,0.7,0.7,0.4c0.4-0.3,0.7-0.8,0.7-1.3c0-0.5-0.3-0.7-0.7-0.4
			C188.7,117.7,188.4,118.2,188.4,118.7z" />
			<path class="st2" d="M185.8,120.3c0,0.5,0.3,0.7,0.7,0.4c0.4-0.3,0.7-0.8,0.7-1.3c0-0.5-0.3-0.7-0.7-0.4
			C186.1,119.2,185.8,119.7,185.8,120.3z" />
			<path class="st5" d="M183.2,121.8c0,0.5,0.3,0.7,0.7,0.4c0.4-0.3,0.7-0.8,0.7-1.3c0-0.5-0.3-0.7-0.7-0.4
			C183.5,120.8,183.2,121.3,183.2,121.8z" />
			<path class="st5" d="M172.2,129.8l1.5-0.9c0.3-0.2,0.4-0.5,0.4-0.9v-1.7c0-0.3-0.2-0.5-0.4-0.3l-1.5,0.9c-0.3,0.2-0.4,0.5-0.4,0.9
			v1.7C171.8,129.7,172,129.9,172.2,129.8z" />
			<path class="st0" d="M170,145.7l32-19.1c0.8-0.6,1.3-1.5,1.3-2.6v-6.3c0-1-0.6-1.4-1.3-1l-32,19.1c-0.8,0.6-1.3,1.5-1.3,2.6v6.3
			C168.7,145.7,169.2,146.2,170,145.7z" />
			<path class="st7" d="M171,143.5l30.2-18c0.4-0.3,0.7-0.8,0.7-1.3v-4.7c0-0.5-0.3-0.7-0.7-0.5L171,137c-0.4,0.3-0.6,0.8-0.7,1.3
			v4.7C170.3,143.5,170.6,143.7,171,143.5z" />
			<path class="st2" d="M194.8,126.9l4.5-2.7c0.4-0.3,0.6-0.8,0.6-1.3l0,0c0-0.5-0.3-0.7-0.6-0.5l-4.5,2.7c-0.4,0.3-0.6,0.8-0.6,1.3
			l0,0C194.2,126.9,194.5,127.1,194.8,126.9z" />
			<path class="st3" d="M191,128.3c0,0.5,0.3,0.7,0.7,0.4c0.4-0.3,0.7-0.8,0.7-1.3c0-0.5-0.3-0.7-0.7-0.4
			C191.3,127.3,191,127.8,191,128.3z" />
			<path class="st5" d="M188.4,129.8c0,0.5,0.3,0.7,0.7,0.4c0.4-0.3,0.7-0.8,0.7-1.3c0-0.5-0.3-0.7-0.7-0.4
			C188.7,128.8,188.4,129.3,188.4,129.8z" />
			<path class="st2" d="M185.8,131.4c0,0.5,0.3,0.7,0.7,0.4c0.4-0.3,0.7-0.8,0.7-1.3c0-0.5-0.3-0.7-0.7-0.4
			C186.1,130.4,185.8,130.9,185.8,131.4z" />
			<path class="st5" d="M183.2,132.9c0,0.5,0.3,0.7,0.7,0.4c0.4-0.3,0.7-0.8,0.7-1.3c0-0.5-0.3-0.7-0.7-0.4
			C183.5,131.9,183.2,132.4,183.2,132.9z" />
			<path class="st5" d="M172.2,140.9l1.5-0.9c0.3-0.2,0.4-0.5,0.4-0.9v-1.7c0-0.3-0.2-0.5-0.4-0.3l-1.5,0.9c-0.3,0.2-0.4,0.5-0.4,0.8
			v1.7C171.8,140.9,172,141,172.2,140.9z" />
			<path class="st0" d="M170,156.8l32-19.1c0.8-0.6,1.3-1.5,1.3-2.6v-6.3c0-1-0.6-1.4-1.3-1l-32,19.1c-0.8,0.6-1.3,1.5-1.3,2.6v6.3
			C168.7,156.8,169.2,157.3,170,156.8z" />
			<path class="st7" d="M171,154.6l30.2-18c0.4-0.3,0.7-0.8,0.7-1.3v-4.7c0-0.5-0.3-0.7-0.7-0.5l-30.2,18c-0.4,0.3-0.6,0.8-0.7,1.3
			v4.7C170.3,154.6,170.6,154.9,171,154.6z" />
			<path class="st2" d="M194.8,138l4.5-2.7c0.4-0.3,0.6-0.8,0.6-1.3l0,0c0-0.5-0.3-0.7-0.6-0.5l-4.5,2.7c-0.4,0.3-0.6,0.8-0.6,1.3
			l0,0C194.2,138,194.5,138.2,194.8,138z" />
			<path class="st3" d="M191,139.4c0,0.5,0.3,0.7,0.7,0.4c0.4-0.3,0.7-0.8,0.7-1.3c0-0.5-0.3-0.7-0.7-0.4
			C191.3,138.4,191,138.9,191,139.4z" />
			<path class="st5" d="M188.4,141c0,0.5,0.3,0.7,0.7,0.4c0.4-0.3,0.7-0.8,0.7-1.3c0-0.5-0.3-0.7-0.7-0.4
			C188.7,140,188.4,140.5,188.4,141z" />
			<path class="st2" d="M185.8,142.5c0,0.5,0.3,0.7,0.7,0.4c0.4-0.3,0.7-0.8,0.7-1.3c0-0.5-0.3-0.7-0.7-0.4
			C186.1,141.5,185.8,142,185.8,142.5z" />
			<path class="st5" d="M183.2,144.1c0,0.5,0.3,0.7,0.7,0.4c0.4-0.3,0.7-0.8,0.7-1.3c0-0.5-0.3-0.7-0.7-0.4
			C183.5,143,183.2,143.5,183.2,144.1z" />
			<path class="st5" d="M172.2,152l1.5-0.9c0.3-0.2,0.4-0.5,0.4-0.9v-1.6c0-0.3-0.2-0.5-0.4-0.3l-1.5,0.9c-0.3,0.2-0.4,0.5-0.4,0.8
			v1.7C171.8,152,172,152.1,172.2,152z" />
			<path class="st0" d="M170,168l32-19.1c0.8-0.6,1.3-1.5,1.3-2.6V140c0-1-0.6-1.4-1.3-1l-32,19.1c-0.8,0.6-1.3,1.5-1.3,2.6v6.3
			C168.7,167.9,169.2,168.4,170,168z" />
			<path class="st7" d="M171,165.8l30.1-18c0.4-0.3,0.7-0.8,0.7-1.3v-4.7c0-0.5-0.3-0.7-0.7-0.5l-30.1,18c-0.4,0.3-0.6,0.8-0.7,1.3
			v4.7C170.3,165.7,170.6,166,171,165.8z" />
			<path class="st2" d="M194.8,149.1l4.5-2.7c0.4-0.3,0.6-0.8,0.6-1.3l0,0c0-0.5-0.3-0.7-0.6-0.5l-4.5,2.7c-0.4,0.3-0.6,0.8-0.6,1.3
			l0,0C194.2,149.1,194.5,149.3,194.8,149.1z" />
			<path class="st5" d="M191,150.5c0,0.5,0.3,0.7,0.7,0.4c0.4-0.3,0.7-0.8,0.7-1.3c0-0.5-0.3-0.7-0.7-0.4
			C191.3,149.5,191,150,191,150.5z" />
			<path class="st5" d="M188.4,152.1c0,0.5,0.3,0.7,0.7,0.4c0.4-0.3,0.7-0.8,0.7-1.3c0-0.5-0.3-0.7-0.7-0.4
			C188.7,151,188.4,151.5,188.4,152.1z" />
			<path class="st2" d="M185.8,153.6c0,0.5,0.3,0.7,0.7,0.4c0.4-0.3,0.7-0.8,0.7-1.3c0-0.5-0.3-0.7-0.7-0.4
			C186.1,152.6,185.8,153.1,185.8,153.6z" />
			<path class="st5" d="M183.2,155.2c0,0.5,0.3,0.7,0.7,0.4c0.4-0.3,0.7-0.8,0.7-1.3c0-0.5-0.3-0.7-0.7-0.4
			C183.5,154.2,183.2,154.7,183.2,155.2z" />
			<path class="st2" d="M172.2,163.1l1.5-0.9c0.3-0.2,0.4-0.5,0.4-0.8v-1.7c0-0.3-0.2-0.5-0.4-0.3l-1.5,0.9c-0.3,0.2-0.4,0.5-0.4,0.8
			v1.7C171.8,163.1,172,163.2,172.2,163.1z" />
			<path class="st0" d="M170,179.1l32-19.1c0.8-0.6,1.3-1.5,1.3-2.6v-6.3c0-1-0.6-1.4-1.3-1l-32,19.1c-0.8,0.6-1.3,1.5-1.3,2.6v6.3
			C168.7,179.1,169.2,179.5,170,179.1z" />
			<path class="st7" d="M171,176.9l30.1-18c0.4-0.3,0.7-0.8,0.7-1.3v-4.7c0-0.5-0.3-0.7-0.7-0.5l-30.1,18c-0.4,0.3-0.6,0.8-0.7,1.3
			v4.7C170.3,176.9,170.6,177.1,171,176.9z" />
			<path class="st2" d="M194.8,160.2l4.5-2.7c0.4-0.3,0.6-0.8,0.6-1.3l0,0c0-0.5-0.3-0.7-0.6-0.5l-4.5,2.7c-0.4,0.3-0.6,0.8-0.6,1.3
			l0,0C194.2,160.2,194.5,160.4,194.8,160.2z" />
			<path class="st5" d="M191,161.6c0,0.5,0.3,0.7,0.7,0.4c0.4-0.3,0.7-0.8,0.7-1.3c0-0.5-0.3-0.7-0.7-0.4
			C191.3,160.6,191,161.1,191,161.6z" />
			<path class="st3" d="M188.4,163.2c0,0.5,0.3,0.7,0.7,0.4c0.4-0.3,0.7-0.8,0.7-1.3c0-0.5-0.3-0.7-0.7-0.4
			C188.7,162.2,188.4,162.7,188.4,163.2z" />
			<path class="st2" d="M185.8,164.7c0,0.5,0.3,0.7,0.7,0.4c0.4-0.3,0.7-0.8,0.7-1.3c0-0.5-0.3-0.7-0.7-0.4
			C186.1,163.7,185.8,164.2,185.8,164.7z" />
			<path class="st3" d="M183.2,166.3c0,0.5,0.3,0.7,0.7,0.4c0.4-0.3,0.7-0.8,0.7-1.3c0-0.5-0.3-0.7-0.7-0.4
			C183.5,165.3,183.2,165.8,183.2,166.3z" />
			<path class="st2" d="M172.2,174.2l1.5-0.9c0.3-0.2,0.4-0.5,0.4-0.8v-1.7c0-0.3-0.2-0.5-0.4-0.3l-1.5,0.9c-0.3,0.2-0.4,0.5-0.4,0.8
			v1.7C171.8,174.2,172,174.4,172.2,174.2z" />
			<path class="st0" d="M170,190.2l32-19.1c0.8-0.6,1.3-1.5,1.3-2.6v-6.3c0-1-0.6-1.4-1.3-1l-32,19.1c-0.8,0.6-1.3,1.5-1.3,2.6v6.3
			C168.7,190.2,169.2,190.6,170,190.2z" />
			<path class="st7" d="M171,188l30.2-18c0.4-0.3,0.7-0.8,0.7-1.3V164c0-0.5-0.3-0.7-0.7-0.5l-30.2,18c-0.4,0.3-0.6,0.8-0.7,1.3v4.7
			C170.3,188,170.6,188.2,171,188z" />
			<path class="st2" d="M194.8,171.4l4.5-2.7c0.4-0.3,0.6-0.8,0.6-1.3l0,0c0-0.5-0.3-0.7-0.6-0.5l-4.5,2.7c-0.4,0.3-0.6,0.8-0.6,1.3
			l0,0C194.2,171.3,194.5,171.6,194.8,171.4z" />
			<path class="st5" d="M191,172.8c0,0.5,0.3,0.7,0.7,0.4c0.4-0.3,0.7-0.8,0.7-1.3c0-0.5-0.3-0.7-0.7-0.4
			C191.3,171.7,191,172.2,191,172.8z" />
			<path class="st5" d="M188.4,174.3c0,0.5,0.3,0.7,0.7,0.4c0.4-0.3,0.7-0.8,0.7-1.3c0-0.5-0.3-0.7-0.7-0.4
			C188.7,173.3,188.4,173.8,188.4,174.3z" />
			<path class="st2" d="M185.8,175.9c0,0.5,0.3,0.7,0.7,0.4c0.4-0.3,0.7-0.8,0.7-1.3c0-0.5-0.3-0.7-0.7-0.4
			C186.1,174.9,185.8,175.4,185.8,175.9z" />
			<path class="st5" d="M183.2,177.4c0,0.5,0.3,0.7,0.7,0.4c0.4-0.3,0.7-0.8,0.7-1.3c0-0.5-0.3-0.7-0.7-0.4
			C183.5,176.4,183.2,176.9,183.2,177.4z" />
			<path class="st5" d="M172.2,185.4l1.5-0.9c0.3-0.2,0.4-0.5,0.4-0.8v-1.7c0-0.3-0.2-0.5-0.4-0.3l-1.5,0.9c-0.3,0.2-0.4,0.5-0.4,0.8
			v1.7C171.8,185.4,172,185.5,172.2,185.4z" />
			<path class="st0" d="M170,201.3l32-19.1c0.8-0.6,1.3-1.5,1.3-2.6v-6.3c0-1-0.6-1.4-1.3-1l-32,19.1c-0.8,0.6-1.3,1.5-1.3,2.6v6.3
			C168.7,201.3,169.2,201.8,170,201.3z" />
			<path class="st7" d="M171,199.1l30.2-18c0.4-0.3,0.7-0.8,0.7-1.3v-4.8c0-0.5-0.3-0.7-0.7-0.5l-30.2,18c-0.4,0.3-0.6,0.8-0.7,1.3
			v4.7C170.3,199.1,170.6,199.3,171,199.1z" />
			<path class="st2" d="M194.8,182.5l4.5-2.7c0.4-0.3,0.6-0.8,0.6-1.3l0,0c0-0.5-0.3-0.7-0.6-0.5l-4.5,2.7c-0.4,0.3-0.6,0.8-0.6,1.3
			l0,0C194.2,182.5,194.5,182.7,194.8,182.5z" />
			<path class="st3" d="M190.1,184.5c0,0.9,0.6,1.3,1.4,0.9c0.8-0.6,1.3-1.5,1.4-2.5c0-0.9-0.6-1.3-1.4-0.9
			C190.7,182.6,190.2,183.5,190.1,184.5z" />
			<path class="st5" d="M184.8,187.7c0,0.5,0.3,0.7,0.7,0.4c0.4-0.3,0.7-0.8,0.7-1.3c0-0.5-0.3-0.7-0.7-0.4
			C185.1,186.7,184.8,187.2,184.8,187.7z" />
			<path class="st2" d="M182.2,189.3c0,0.5,0.3,0.7,0.7,0.4c0.4-0.3,0.7-0.8,0.7-1.3c0-0.5-0.3-0.7-0.7-0.4
			C182.5,188.3,182.2,188.8,182.2,189.3z" />
			<path class="st5" d="M179.5,190.9c0,0.5,0.3,0.7,0.7,0.4c0.4-0.3,0.7-0.8,0.7-1.3c0-0.5-0.3-0.7-0.7-0.4
			C179.8,189.8,179.6,190.3,179.5,190.9z" />
			<path class="st2" d="M172.2,196.5l1.5-0.9c0.3-0.2,0.4-0.5,0.4-0.8v-1.7c0-0.3-0.2-0.5-0.4-0.3l-1.5,0.9c-0.3,0.2-0.4,0.5-0.4,0.9
			v1.7C171.8,196.5,172,196.6,172.2,196.5z" />
			<path class="st2" d="M133.2,103.6l1.4-0.9v-2c0.1-2.4,1.4-4.6,3.3-6l10.5-6.2c1.8-1.1,3.3-0.2,3.3,2v22.1l1.4-20.9v-2.1
			c0-3.1-2.1-4.4-4.7-2.8L138,93.1c-2.8,1.9-4.6,5.1-4.7,8.5L133.2,103.6z" />
			<path class="st2"
				d="M138,106.4l-4.7-2.8l1-3.4l1.3-3.4c0,0,2.3-2.6,2.4-2.7c0.2-0.1,6.4-3.7,6.4-3.7l5.1-3.8l2.5,0.1l4.6,2.7
			l-3.3,1.4c0,0-1.9,1-2.3,1.1c-0.8,0.6-1.6,1.2-2.3,1.9l-2.2,0.9l-0.5-0.1l-4,2.9l-1.3,0.6l-0.7,1.2l-1.1,3.1L138,106.4z" />
			<path class="st1" d="M151.8,112.6l4.7,2.8c0,0,0.3-23.2,0.3-23.2s-1-1.5-1-1.5l-2.6-0.5l-2,1.6l0.6-0.3l0.3,0.2l-0.3,0.5
			L151.8,112.6z" />
			<path class="st0" d="M138,106.4l1.4-0.9v-2c0.1-2.4,1.4-4.6,3.3-6l10.5-6.2c1.8-1.1,3.3-0.2,3.3,2v22.1l1.4-0.9V92.5
			c0-3.1-2.1-4.4-4.7-2.8l-10.5,6.2c-2.8,1.9-4.6,5.1-4.7,8.5V106.4z" />
			<path class="st4" d="M117.5,237.8l24-14.1c0.9-0.5,0.8-1.4-0.2-2l-13.8-8.2c-1-0.6-2.3-0.7-3.4-0.1l-24,14.1
			c-0.9,0.5-0.8,1.4,0.2,2l13.8,8.2C115.2,238.3,116.4,238.3,117.5,237.8z" />
			<path class="st1" d="M88.2,201.9L88.2,201.9v-82.4l31.7-8.6l5.9-3.5c1.7-0.8,3.6-0.7,5.2,0.2l5.5,3.3h16.9l-5,79.6
			c0,0.6-0.3,1.2-0.9,1.4l-31.6,24.7c-1.7,0.8-3.6,0.7-5.2-0.2l-21.1-12.6C88.8,203.5,88.3,202.7,88.2,201.9z" />
			<path class="st2" d="M128.2,106.9c1,0,2,0.3,2.8,0.8l5.5,3.3h16.9v82.6c0,0.6-0.3,1.2-0.9,1.4l-36.6,21.6
			c-0.7,0.4-1.6,0.6-2.4,0.5L113,134L128.2,106.9z" />
			<path class="st0" d="M115.5,216.8c-1.4,0.5-2.8,0.5-4.2-0.1V133h4.2V216.8z" />
			<path class="st2" d="M115.8,134l36.7-21.6c1.3-0.8,1.2-2.2-0.4-3.1L131,96.7c-1.6-0.9-3.6-1-5.2-0.2l-36.6,21.6
			c-1.3,0.8-1.2,2.2,0.4,3.1l21.1,12.6C112.2,134.7,114.2,134.8,115.8,134z" />
			<path class="st6" d="M89.5,119.6l21.1,12.6c1.6,0.9,3.6,1,5.2,0.2l36.7-21.6c0.3-0.2,0.5-0.4,0.7-0.6c0.4,0.7,0.2,1.6-0.5,2
			c-0.1,0-0.1,0.1-0.2,0.1L115.9,134c-1.7,0.8-3.6,0.7-5.2-0.2l-21.1-12.6c-1.2-0.7-1.6-1.7-1-2.5C88.7,119.1,89.1,119.4,89.5,119.6
			z" />
			<path class="st5" d="M114.7,125.2l24.4-14.6c0.6-0.4,0.5-1-0.2-1.5l-9.8-5.9c-0.7-0.4-1.7-0.5-2.4-0.1l-24.4,14.6
			c-0.6,0.4-0.5,1,0.2,1.5l9.9,5.9C113.1,125.6,114,125.6,114.7,125.2z" />
			<path class="st2" d="M128,111.3l1.4-0.9c0.1-0.1,0.1-0.1,0-0.2l-1.4-0.9c-0.1-0.1-0.2-0.1-0.3,0l-1.4,0.9c-0.1,0.1-0.1,0.1,0,0.2
			l1.4,0.9C127.7,111.3,127.8,111.3,128,111.3z" />
			<path class="st2" d="M123.3,114.1l1.4-0.9c0.1-0.1,0.1-0.1,0-0.2l-1.4-0.9c-0.1-0.1-0.2-0.1-0.3,0l-1.4,0.9
			c-0.1,0.1-0.1,0.1,0,0.2l1.4,0.9C123,114.1,123.2,114.1,123.3,114.1z" />
			<path class="st2" d="M118.5,116.9l1.4-0.9c0.1-0.1,0.1-0.1,0-0.2l-1.4-0.9c-0.1-0.1-0.2-0.1-0.3,0l-1.4,0.9
			c-0.1,0.1-0.1,0.1,0,0.2l1.4,0.9C118.3,116.9,118.4,116.9,118.5,116.9z" />
			<path class="st2" d="M113.8,119.7l1.4-0.9c0.1-0.1,0.1-0.1,0-0.2l-1.4-0.9c-0.1-0.1-0.2-0.1-0.3,0l-1.4,0.9
			c-0.1,0.1-0.1,0.1,0,0.2l1.4,0.9C113.6,119.8,113.7,119.8,113.8,119.7z" />
			<path class="st0" d="M139.2,110.6L139.2,110.6c0,0-0.1-0.1-0.2-0.1l-9.9-5.9c-0.8-0.4-1.7-0.5-2.5-0.1l-24.4,14.6
			c-0.6-0.4-0.6-1,0-1.4l24.4-14.6c0.8-0.4,1.7-0.3,2.4,0.1l9.9,5.9C139.7,109.6,139.8,110.2,139.2,110.6z" />
			<path class="st5" d="M106.5,150.4l-13.9-8.3c-0.9-0.7-1.4-1.7-1.4-2.8v-5.1c0-1.1,0.6-1.6,1.4-1.1l13.9,8.2
			c0.9,0.7,1.4,1.7,1.4,2.8v5.1C107.9,150.3,107.3,150.8,106.5,150.4z" />
			<path class="st3" d="M91.9,132.9c-0.3,0.3-0.4,0.7-0.4,1.1v5.1c0,1.1,0.5,2.1,1.4,2.8l13.9,8.2c0.2,0.1,0.4,0.2,0.7,0.2
			c-0.3,0.2-0.7,0.2-1.1,0l-13.9-8.2c-0.9-0.7-1.4-1.7-1.4-2.8v-5.1C91.2,133.5,91.5,133,91.9,132.9z" />
			<path class="st1" d="M102.3,144.7L101,144c-0.2-0.1-0.3-0.4-0.3-0.6V142c0-0.2,0.1-0.3,0.3-0.2l1.3,0.8c0.2,0.1,0.3,0.4,0.3,0.6
			v1.4C102.6,144.7,102.5,144.8,102.3,144.7z" />
			<path class="st3" d="M98,142.2l-1.3-0.8c-0.2-0.1-0.3-0.4-0.3-0.6v-1.4c0-0.2,0.1-0.3,0.3-0.2l1.3,0.8c0.2,0.1,0.3,0.4,0.3,0.6
			v1.4C98.3,142.2,98.2,142.3,98,142.2z" />
			<path class="st5" d="M106.5,187.4l-13.9-8.2c-0.9-0.7-1.4-1.7-1.4-2.8v-5.1c0-1.1,0.6-1.6,1.4-1.1l13.9,8.2
			c0.9,0.7,1.4,1.7,1.4,2.8v5.1C107.9,187.3,107.3,187.8,106.5,187.4z" />
			<path class="st3" d="M91.9,169.9c-0.3,0.3-0.4,0.7-0.4,1.1v5.1c0,1.1,0.5,2.1,1.4,2.8l13.9,8.2c0.2,0.1,0.4,0.2,0.7,0.2
			c-0.3,0.2-0.7,0.2-1.1,0l-13.9-8.1c-0.9-0.7-1.4-1.7-1.4-2.8v-5.1C91.2,170.5,91.5,170.1,91.9,169.9z" />
			<path class="st1" d="M102.3,181.8L101,181c-0.2-0.1-0.3-0.4-0.3-0.6V179c0-0.2,0.1-0.3,0.3-0.2l1.3,0.8c0.2,0.1,0.3,0.4,0.3,0.6
			v1.4C102.6,181.8,102.5,181.9,102.3,181.8z" />
			<path class="st3" d="M98,179.3l-1.3-0.8c-0.2-0.1-0.3-0.4-0.3-0.6v-1.4c0-0.2,0.1-0.3,0.3-0.2L98,177c0.2,0.1,0.3,0.4,0.3,0.6v1.4
			C98.3,179.2,98.2,179.4,98,179.3z" />
			<path class="st5" d="M106.5,205.9l-13.9-8.2c-0.9-0.7-1.4-1.7-1.4-2.8v-5.1c0-1.1,0.6-1.6,1.4-1.1l13.9,8.2
			c0.9,0.7,1.4,1.7,1.4,2.8v5.1C107.9,205.9,107.3,206.3,106.5,205.9z" />
			<path class="st3" d="M91.9,188.5c-0.3,0.3-0.4,0.7-0.4,1.1v5.1c0,1.1,0.5,2.1,1.4,2.8l13.9,8.2c0.2,0.1,0.4,0.2,0.7,0.2
			c-0.3,0.2-0.7,0.2-1.1,0l-13.9-8.2c-0.9-0.7-1.4-1.7-1.4-2.8v-5.1C91.2,189,91.5,188.6,91.9,188.5z" />
			<path class="st1" d="M102.3,200.3l-1.3-0.8c-0.2-0.1-0.3-0.4-0.3-0.6v-1.4c0-0.2,0.1-0.3,0.3-0.2l1.3,0.8c0.2,0.1,0.3,0.4,0.3,0.6
			v1.4C102.6,200.3,102.5,200.4,102.3,200.3z" />
			<path class="st3" d="M98,197.8l-1.3-0.8c-0.2-0.1-0.3-0.4-0.3-0.6V195c0-0.2,0.1-0.3,0.3-0.2l1.3,0.8c0.2,0.1,0.3,0.4,0.3,0.6v1.4
			C98.3,197.8,98.2,197.9,98,197.8z" />
			<path class="st3" d="M99,207.2l-1.3-0.8c-0.2-0.1-0.3-0.4-0.3-0.6v-1.4c0-0.2,0.1-0.3,0.3-0.2L99,205c0.2,0.1,0.3,0.4,0.3,0.6v1.4
			C99.3,207.2,99.2,207.3,99,207.2z" />
			<path class="st5" d="M106.5,168.8l-13.9-8.2c-0.9-0.7-1.4-1.7-1.4-2.8v-5.1c0-1.1,0.6-1.6,1.4-1.1l13.9,8.2
			c0.9,0.7,1.4,1.7,1.4,2.8v5.1C107.9,168.8,107.3,169.3,106.5,168.8z" />
			<path class="st3" d="M91.9,151.5c-0.3,0.3-0.4,0.7-0.4,1.1v5.1c0,1.1,0.5,2.1,1.4,2.8l13.9,8.2c0.2,0.1,0.4,0.2,0.7,0.2
			c-0.3,0.2-0.7,0.2-1.1,0l-13.9-8.2c-0.9-0.7-1.4-1.7-1.4-2.8v-5.1C91.2,152,91.5,151.5,91.9,151.5z" />
			<path class="st1" d="M102.3,163.3l-1.3-0.8c-0.2-0.1-0.3-0.4-0.3-0.6v-1.4c0-0.2,0.1-0.3,0.3-0.2l1.3,0.8c0.2,0.1,0.3,0.4,0.3,0.6
			v1.4C102.6,163.3,102.5,163.4,102.3,163.3z" />
			<path class="st3" d="M98,160.7l-1.3-0.8c-0.2-0.1-0.3-0.4-0.3-0.6V158c0-0.2,0.1-0.3,0.3-0.2l1.3,0.8c0.2,0.1,0.3,0.4,0.3,0.6v1.4
			C98.3,160.7,98.2,160.8,98,160.7z" />
			<path class="st0" d="M118.5,145.1l32-19.1c0.8-0.6,1.3-1.5,1.3-2.6v-6.3c0-1-0.6-1.4-1.3-1l-32,19.1c-0.8,0.6-1.3,1.5-1.3,2.6v6.3
			C117.2,145,117.8,145.5,118.5,145.1z" />
			<path class="st7" d="M119.4,142.9l30.2-18c0.4-0.3,0.7-0.8,0.7-1.3v-4.7c0-0.5-0.3-0.7-0.7-0.5l-30.2,18c-0.4,0.3-0.6,0.8-0.7,1.3
			v4.7C118.7,142.8,119,143.1,119.4,142.9z" />
			<path class="st2" d="M143.3,126.2l4.5-2.7c0.4-0.3,0.6-0.8,0.6-1.3l0,0c0-0.5-0.3-0.7-0.6-0.5l-4.5,2.7c-0.4,0.3-0.6,0.8-0.6,1.3
			l0,0C142.7,126.2,142.9,126.4,143.3,126.2z" />
			<path class="st5" d="M139.4,127.6c0,0.5,0.3,0.7,0.7,0.4c0.4-0.3,0.7-0.8,0.7-1.3c0-0.5-0.3-0.7-0.7-0.4
			C139.7,126.6,139.5,127.1,139.4,127.6z" />
			<path class="st5" d="M136.9,129.2c0,0.5,0.3,0.7,0.7,0.4c0.4-0.3,0.7-0.8,0.7-1.3c0-0.5-0.3-0.7-0.7-0.4
			C137.2,128.1,136.9,128.6,136.9,129.2z" />
			<path class="st2" d="M134.2,130.8c0,0.5,0.3,0.7,0.7,0.4c0.4-0.3,0.7-0.8,0.7-1.3c0-0.5-0.3-0.7-0.7-0.4
			C134.5,129.7,134.3,130.2,134.2,130.8z" />
			<path class="st5" d="M131.6,132.3c0,0.5,0.3,0.7,0.7,0.4c0.4-0.3,0.7-0.8,0.7-1.3c0-0.5-0.3-0.7-0.7-0.4
			C131.9,131.3,131.7,131.7,131.6,132.3z" />
			<path class="st5" d="M120.7,140.2l1.5-0.9c0.3-0.2,0.4-0.5,0.4-0.8v-1.7c0-0.3-0.2-0.5-0.4-0.3l-1.5,1c-0.3,0.2-0.4,0.5-0.4,0.9
			v1.7C120.3,140.2,120.5,140.3,120.7,140.2z" />
			<path class="st0" d="M118.5,156.2l32-19.1c0.8-0.6,1.3-1.5,1.3-2.6v-6.3c0-1-0.6-1.4-1.3-1l-32,19.1c-0.8,0.6-1.3,1.5-1.3,2.6v6.3
			C117.2,156.2,117.8,156.6,118.5,156.2z" />
			<path class="st7" d="M119.4,154l30.2-18c0.4-0.3,0.7-0.8,0.7-1.3v-4.8c0-0.5-0.3-0.7-0.7-0.5l-30.2,18c-0.4,0.3-0.6,0.8-0.7,1.3
			v4.7C118.7,154,119,154.2,119.4,154z" />
			<path class="st2" d="M143.3,137.3l4.5-2.7c0.4-0.3,0.6-0.8,0.6-1.3l0,0c0-0.5-0.3-0.7-0.6-0.5l-4.5,2.7c-0.4,0.3-0.6,0.8-0.6,1.3
			l0,0C142.7,137.3,142.9,137.6,143.3,137.3z" />
			<path class="st3" d="M139.4,138.7c0,0.5,0.3,0.7,0.7,0.4c0.4-0.3,0.7-0.8,0.7-1.3c0-0.5-0.3-0.7-0.7-0.4
			C139.7,137.7,139.5,138.2,139.4,138.7z" />
			<path class="st5" d="M136.9,140.3c0,0.5,0.3,0.7,0.7,0.4c0.4-0.3,0.7-0.8,0.7-1.3c0-0.5-0.3-0.7-0.7-0.4
			C137.2,139.3,136.9,139.8,136.9,140.3z" />
			<path class="st2" d="M134.2,141.8c0,0.5,0.3,0.7,0.7,0.4c0.4-0.3,0.7-0.8,0.7-1.3c0-0.5-0.3-0.7-0.7-0.4
			C134.5,140.8,134.3,141.3,134.2,141.8z" />
			<path class="st5" d="M131.6,143.4c0,0.5,0.3,0.7,0.7,0.4c0.4-0.3,0.7-0.8,0.7-1.3c0-0.5-0.3-0.7-0.7-0.4
			C131.9,142.4,131.7,142.9,131.6,143.4z" />
			<path class="st5" d="M120.7,151.3l1.5-0.9c0.3-0.2,0.4-0.5,0.4-0.9v-1.7c0-0.3-0.2-0.5-0.4-0.3l-1.5,1c-0.3,0.2-0.4,0.5-0.4,0.9
			v1.7C120.3,151.3,120.5,151.5,120.7,151.3z" />
			<path class="st0" d="M118.5,167.3l32-19.1c0.8-0.6,1.3-1.5,1.3-2.6v-6.3c0-1-0.6-1.4-1.3-1l-32,19.1c-0.8,0.6-1.3,1.5-1.3,2.6v6.3
			C117.2,167.3,117.8,167.7,118.5,167.3z" />
			<path class="st7" d="M119.4,165.1l30.2-18c0.4-0.3,0.7-0.8,0.7-1.3v-4.7c0-0.5-0.3-0.7-0.7-0.5l-30.2,18c-0.4,0.3-0.6,0.8-0.7,1.3
			v4.7C118.7,165.1,119,165.3,119.4,165.1z" />
			<path class="st2" d="M143.3,148.4l4.5-2.7c0.4-0.3,0.6-0.8,0.6-1.3l0,0c0-0.5-0.3-0.7-0.6-0.5l-4.5,2.7c-0.4,0.3-0.6,0.8-0.6,1.3
			l0,0C142.7,148.4,142.9,148.7,143.3,148.4z" />
			<path class="st3" d="M139.4,149.9c0,0.5,0.3,0.7,0.7,0.4c0.4-0.3,0.7-0.8,0.7-1.3c0-0.5-0.3-0.7-0.7-0.4
			C139.7,148.8,139.5,149.3,139.4,149.9z" />
			<path class="st5" d="M136.9,151.4c0,0.5,0.3,0.7,0.7,0.4c0.4-0.3,0.7-0.8,0.7-1.3c0-0.5-0.3-0.7-0.7-0.4
			C137.2,150.4,136.9,150.9,136.9,151.4z" />
			<path class="st2" d="M134.2,153c0,0.5,0.3,0.7,0.7,0.4c0.4-0.3,0.7-0.8,0.7-1.3c0-0.5-0.3-0.7-0.7-0.4
			C134.5,151.9,134.3,152.4,134.2,153z" />
			<path class="st5" d="M131.6,154.5c0,0.5,0.3,0.7,0.7,0.4c0.4-0.3,0.7-0.8,0.7-1.3c0-0.5-0.3-0.7-0.7-0.4
			C131.9,153.5,131.7,154,131.6,154.5z" />
			<path class="st5" d="M120.7,162.5l1.5-0.9c0.3-0.2,0.4-0.5,0.4-0.9V159c0-0.3-0.2-0.5-0.4-0.3l-1.5,0.9c-0.3,0.2-0.4,0.5-0.4,0.9
			v1.7C120.3,162.4,120.5,162.6,120.7,162.5z" />
			<path class="st0" d="M118.5,178.5l32-19.1c0.8-0.6,1.3-1.5,1.3-2.6v-6.3c0-1-0.6-1.4-1.3-1l-32,19.1c-0.8,0.6-1.3,1.5-1.3,2.6v6.3
			C117.2,178.4,117.8,178.9,118.5,178.5z" />
			<path class="st7" d="M119.4,176.2l30.2-18c0.4-0.3,0.7-0.8,0.7-1.3v-4.7c0-0.5-0.3-0.7-0.7-0.5l-30.2,18c-0.4,0.3-0.6,0.8-0.7,1.3
			v4.7C118.7,176.2,119,176.4,119.4,176.2z" />
			<path class="st2" d="M143.3,159.6l4.5-2.7c0.4-0.3,0.6-0.8,0.6-1.3l0,0c0-0.5-0.3-0.7-0.6-0.5l-4.5,2.7c-0.4,0.3-0.6,0.8-0.6,1.3
			l0,0C142.7,159.6,142.9,159.8,143.3,159.6z" />
			<path class="st5" d="M139.4,161c0,0.5,0.3,0.7,0.7,0.4c0.4-0.3,0.7-0.8,0.7-1.3c0-0.5-0.3-0.7-0.7-0.4
			C139.7,160,139.5,160.5,139.4,161z" />
			<path class="st5" d="M136.9,162.5c0,0.5,0.3,0.7,0.7,0.4c0.4-0.3,0.7-0.8,0.7-1.3c0-0.5-0.3-0.7-0.7-0.4
			C137.2,161.5,136.9,162,136.9,162.5z" />
			<path class="st2" d="M134.2,164.1c0,0.5,0.3,0.7,0.7,0.4c0.4-0.3,0.7-0.8,0.7-1.3c0-0.5-0.3-0.7-0.7-0.4
			C134.5,163.1,134.3,163.6,134.2,164.1z" />
			<path class="st5" d="M131.6,165.7c0,0.5,0.3,0.7,0.7,0.4c0.4-0.3,0.7-0.8,0.7-1.3c0-0.5-0.3-0.7-0.7-0.4
			C131.9,164.7,131.7,165.2,131.6,165.7z" />
			<path class="st2" d="M120.7,173.6l1.5-0.9c0.3-0.2,0.4-0.5,0.4-0.9v-1.7c0-0.3-0.2-0.5-0.4-0.3l-1.5,0.9c-0.3,0.2-0.4,0.5-0.4,0.9
			v1.7C120.3,173.6,120.5,173.7,120.7,173.6z" />
			<path class="st0" d="M118.5,189.5l32-19.1c0.8-0.6,1.3-1.5,1.3-2.6v-6.3c0-1-0.6-1.4-1.3-1l-32,19.1c-0.8,0.6-1.3,1.5-1.3,2.6v6.3
			C117.2,189.5,117.8,190,118.5,189.5z" />
			<path class="st7" d="M119.4,187.3l30.2-18c0.4-0.3,0.7-0.8,0.7-1.3v-4.7c0-0.5-0.3-0.7-0.7-0.5l-30.2,18c-0.4,0.3-0.6,0.8-0.7,1.3
			v4.7C118.7,187.3,119,187.6,119.4,187.3z" />
			<path class="st2" d="M143.3,170.7l4.5-2.7c0.4-0.3,0.6-0.8,0.6-1.3l0,0c0-0.5-0.3-0.7-0.6-0.5l-4.5,2.7c-0.4,0.3-0.6,0.8-0.6,1.3
			l0,0C142.7,170.7,142.9,170.9,143.3,170.7z" />
			<path class="st5" d="M139.4,172.1c0,0.5,0.3,0.7,0.7,0.4c0.4-0.3,0.7-0.8,0.7-1.3c0-0.5-0.3-0.7-0.7-0.4
			C139.7,171.1,139.5,171.6,139.4,172.1z" />
			<path class="st3" d="M136.9,173.7c0,0.5,0.3,0.7,0.7,0.4c0.4-0.3,0.7-0.8,0.7-1.3c0-0.5-0.3-0.7-0.7-0.4
			C137.2,172.6,136.9,173.1,136.9,173.7z" />
			<path class="st2" d="M134.2,175.2c0,0.5,0.3,0.7,0.7,0.4c0.4-0.3,0.7-0.8,0.7-1.3c0-0.5-0.3-0.7-0.7-0.4
			C134.5,174.2,134.3,174.7,134.2,175.2z" />
			<path class="st3" d="M131.6,176.8c0,0.5,0.3,0.7,0.7,0.4c0.4-0.3,0.7-0.8,0.7-1.3c0-0.5-0.3-0.7-0.7-0.4
			C131.9,175.7,131.7,176.2,131.6,176.8z" />
			<path class="st2" d="M120.7,184.7l1.5-0.9c0.3-0.2,0.4-0.5,0.4-0.9v-1.7c0-0.3-0.2-0.5-0.4-0.3l-1.5,0.9c-0.3,0.2-0.4,0.5-0.4,0.8
			v1.7C120.3,184.7,120.5,184.8,120.7,184.7z" />
			<path class="st0" d="M118.5,200.7l32-19.1c0.8-0.6,1.3-1.5,1.3-2.6v-6.3c0-1-0.6-1.4-1.3-1l-32,19.1c-0.8,0.6-1.3,1.5-1.3,2.6v6.3
			C117.2,200.6,117.8,201.1,118.5,200.7z" />
			<path class="st7" d="M119.4,198.5l30.2-18c0.4-0.3,0.7-0.8,0.7-1.3v-4.7c0-0.5-0.3-0.7-0.7-0.5l-30.2,18c-0.4,0.3-0.6,0.8-0.7,1.3
			v4.7C118.7,198.4,119,198.7,119.4,198.5z" />
			<path class="st2" d="M143.3,181.8l4.5-2.7c0.4-0.3,0.6-0.8,0.6-1.3l0,0c0-0.5-0.3-0.7-0.6-0.5l-4.5,2.7c-0.4,0.3-0.6,0.8-0.6,1.3
			l0,0C142.7,181.8,142.9,182,143.3,181.8z" />
			<path class="st5" d="M139.4,183.2c0,0.5,0.3,0.7,0.7,0.4c0.4-0.3,0.7-0.8,0.7-1.3c0-0.5-0.3-0.7-0.7-0.4
			C139.7,182.2,139.5,182.7,139.4,183.2z" />
			<path class="st5" d="M136.9,184.8c0,0.5,0.3,0.7,0.7,0.4c0.4-0.3,0.7-0.8,0.7-1.3c0-0.5-0.3-0.7-0.7-0.4
			C137.2,183.8,136.9,184.2,136.9,184.8z" />
			<path class="st2" d="M134.2,186.3c0,0.5,0.3,0.7,0.7,0.4c0.4-0.3,0.7-0.8,0.7-1.3c0-0.5-0.3-0.7-0.7-0.4
			C134.5,185.3,134.3,185.8,134.2,186.3z" />
			<path class="st5" d="M131.6,187.9c0,0.5,0.3,0.7,0.7,0.4c0.4-0.3,0.7-0.8,0.7-1.3c0-0.5-0.3-0.7-0.7-0.4
			C131.9,186.9,131.7,187.4,131.6,187.9z" />
			<path class="st5" d="M120.7,195.8l1.5-0.9c0.3-0.2,0.4-0.5,0.4-0.8v-1.7c0-0.3-0.2-0.5-0.4-0.3l-1.5,0.9c-0.3,0.2-0.4,0.5-0.4,0.8
			v1.7C120.3,195.8,120.5,196,120.7,195.8z" />
			<path class="st0" d="M118.5,211.8l32-19.1c0.8-0.6,1.3-1.5,1.3-2.6v-6.3c0-1-0.6-1.4-1.3-1l-32,19.1c-0.8,0.6-1.3,1.5-1.3,2.6v6.3
			C117.2,211.8,117.8,212.2,118.5,211.8z" />
			<path class="st7" d="M119.4,209.6l30.2-18c0.4-0.3,0.7-0.8,0.7-1.3v-4.7c0-0.5-0.3-0.7-0.7-0.5l-30.2,18c-0.4,0.3-0.6,0.8-0.7,1.3
			v4.7C118.7,209.6,119,209.8,119.4,209.6z" />
			<path class="st2" d="M143.3,192.9l4.5-2.7c0.4-0.3,0.6-0.8,0.6-1.3l0,0c0-0.5-0.3-0.7-0.6-0.5l-4.5,2.7c-0.4,0.3-0.6,0.8-0.6,1.3
			l0,0C142.7,192.9,142.9,193.1,143.3,192.9z" />
			<path class="st3" d="M138.6,194.9c0,0.9,0.6,1.3,1.4,0.9c0.8-0.6,1.3-1.5,1.4-2.5c0-0.9-0.6-1.3-1.4-0.9
			C139.2,193,138.7,193.9,138.6,194.9z" />
			<path class="st5" d="M133.2,198.2c0,0.5,0.3,0.7,0.7,0.4c0.4-0.3,0.7-0.8,0.7-1.3c0-0.5-0.3-0.7-0.7-0.4
			C133.5,197.2,133.3,197.7,133.2,198.2z" />
			<path class="st2" d="M130.6,199.7c0,0.5,0.3,0.7,0.7,0.4c0.4-0.3,0.7-0.8,0.7-1.3c0-0.5-0.3-0.7-0.7-0.4
			C130.9,198.7,130.7,199.2,130.6,199.7z" />
			<path class="st5" d="M128,201.3c0,0.5,0.3,0.7,0.7,0.4c0.4-0.3,0.7-0.8,0.7-1.3c0-0.5-0.3-0.7-0.7-0.4
			C128.3,200.3,128.1,200.8,128,201.3z" />
			<path class="st2" d="M120.7,206.9l1.5-0.9c0.3-0.2,0.4-0.5,0.4-0.8v-1.7c0-0.3-0.2-0.5-0.4-0.3l-1.5,0.9c-0.3,0.2-0.4,0.5-0.4,0.9
			v1.7C120.3,206.9,120.5,207.1,120.7,206.9z" />
			<path class="st4" d="M228.7,270.4l71.4-42.6c2-1.2,1.8-3.3-0.6-4.7l-48.6-29c-2.3-1.4-5.9-1.5-7.9-0.3l-71.4,42.6
			c-2,1.2-1.8,3.3,0.6,4.7l48.6,29C223.2,271.5,226.7,271.6,228.7,270.4z" />
			<path class="st5" d="M155,161l71.4-42.6c0.7-0.5,1.6-0.6,2.4-0.3l0,0l0.1,0.1l0,0l2.6,1l-2.3,1.2c0,0,0,0.1,0,0.1l11.6,54.7
			c0.6,2.7-0.6,6-2.6,7.1l-69.6,41.5l0.2,3l-2.8-1.1c-1.1-0.6-1.8-1.7-2-3l-11.6-54.7C151.8,165.4,153,162.3,155,161z" />
			<path class="st1" d="M155,161l71.4-42.6c0.7-0.5,1.6-0.6,2.4-0.3l0,0l0.1,0.1l0,0l2.6,1l-2.3,1.2c0,0,0,0.1,0,0.1l7.7,36
			l-34.9,28.1L152.7,164C153.1,162.8,153.9,161.7,155,161z" />
			<path class="st8" d="M157.7,169.4l-5.5-2.4c-0.1-2.1,0.7-4.2,2.2-5.6l8.6,3.7L157.7,169.4z" />
			<path class="st2" d="M171.3,226.6l71.4-42.6c2-1.2,3.2-4.4,2.6-7.1l-11.6-54.7c-0.6-2.7-2.7-4-4.7-2.8l-71.4,42.6
			c-2,1.2-3.2,4.4-2.6,7.1l11.6,54.7C167.2,226.6,169.3,227.9,171.3,226.6z" />
			<path class="st3" d="M156.9,161.8l71.4-42.6c0.8-0.6,1.9-0.6,2.8-0.1c-0.7-0.2-1.5,0-2.1,0.4l-71.4,42.6c-2,1.2-3.2,4.4-2.6,7.1
			l11.6,54.7c0.2,1.2,0.9,2.3,1.9,2.9c-1.2-0.3-2.2-1.4-2.6-3.2L154.3,169C153.7,166.2,154.9,163,156.9,161.8z" />
			<path class="st3" d="M172.9,222.6l67.1-40c1.8-1.1,2.9-4,2.4-6.5l-10.6-50c-0.5-2.5-2.5-3.6-4.3-2.6l-67.1,40
			c-1.8,1.1-2.9,4-2.4,6.5l10.6,50C169.1,222.5,171,223.7,172.9,222.6z" />
			<path class="st5" d="M172.9,222.6l67.1-40c1.8-1.1,2.9-4,2.4-6.5l-10.6-50c-0.5-2.5-2.5-3.6-4.3-2.6l-67.1,40
			c-1.8,1.1-2.9,4-2.4,6.5l10.6,50C169.1,222.5,171,223.7,172.9,222.6z" />
			<path class="st0" d="M172.3,222.3l67.1-40c1.8-1.1,2.9-4,2.4-6.5l-10.6-50c-0.2-1.1-0.8-2-1.7-2.6c1.2,0.5,2.1,1.6,2.3,2.9
			l10.6,50c0.5,2.5-0.5,5.4-2.4,6.5l-67.1,40c-0.8,0.5-1.8,0.6-2.6,0.1C170.9,222.8,171.7,222.7,172.3,222.3z" />
			<path class="st5" d="M170.3,228.5l9.8-1.3l63-37.6c2-1.2,5.5-1,7.9,0.3l44.6,26.6l5.9-0.8v3.5l0,0c0,0.9-0.5,1.7-1.4,2.1
			l-71.4,42.6c-2,1.2-5.5,1-7.9-0.3l-48.6-29c-1.3-0.8-2-1.8-1.9-2.7l0,0L170.3,228.5z" />
			<path class="st1" d="M217.6,204.8l4.5-2.7h49.2l24.2,14.5l5.9-0.8v3.5l0,0c0,0.9-0.5,1.7-1.4,2.1l-71.4,42.6
			c-1.2,0.7-2.7,0.9-4.1,0.8L217.6,204.8z" />
			<path class="st0" d="M298.8,216.1l2.6-0.4v3.5l0,0c0,0.9-0.5,1.7-1.4,2.1l-1.3,0.7L298.8,216.1z" />
			<path class="st8" d="M228,264.2c-2.2,0.7-4.6,0.6-6.7-0.4v-7.7h6.7V264.2z" />
			<path class="st2" d="M228.7,260.4l71.4-42.6c2-1.2,1.8-3.3-0.6-4.7l-48.6-29c-2.3-1.4-5.9-1.5-7.9-0.3l-71.4,42.6
			c-2,1.2-1.8,3.3,0.6,4.7l48.6,29C223.2,261.5,226.7,261.6,228.7,260.4z" />
			<path class="st3" d="M172.3,229.9l48.6,29c2.3,1.4,5.9,1.5,7.9,0.3l71.4-42.6c0.6-0.3,1-0.8,1.3-1.4c0.3,1.1-0.2,2.2-1.3,2.7
			l-71.4,42.6c-2,1.2-5.5,1.1-7.9-0.3l-48.6-29c-1.6-0.9-2.2-2.2-1.8-3.3C170.8,228.7,171.4,229.4,172.3,229.9z" />
			<path class="st0" d="M269.7,203.8l3.2-1.9c0.3-0.2,0.2-0.4-0.1-0.6l-3.8-2.3c-0.3-0.2-0.7-0.2-1,0l-3.2,1.9
			c-0.3,0.2-0.2,0.4,0.1,0.6l3.8,2.3C269,204,269.4,204,269.7,203.8z" />
			<path class="st0" d="M264.7,206.8l3.2-1.9c0.3-0.2,0.2-0.4-0.1-0.6l-3.8-2.3c-0.3-0.2-0.7-0.2-1,0l-3.2,1.9
			c-0.3,0.2-0.2,0.4,0.1,0.6l3.8,2.3C264,206.9,264.4,206.9,264.7,206.8z" />
			<path class="st0" d="M259.8,209.7l3.2-1.9c0.3-0.2,0.2-0.4-0.1-0.6l-3.8-2.3c-0.3-0.2-0.7-0.2-1,0l-3.2,1.9
			c-0.3,0.2-0.2,0.4,0.1,0.6l3.8,2.3C259.1,209.9,259.4,209.9,259.8,209.7z" />
			<path class="st0" d="M252.9,207.3l3.2-1.9c0.3-0.2,0.2-0.4-0.1-0.6l-3.2-1.9c-0.3-0.2-0.7-0.2-1,0l-3.2,1.9
			c-0.3,0.2-0.2,0.4,0.1,0.6l3.2,1.9C252.2,207.4,252.5,207.4,252.9,207.3z" />
			<path class="st0" d="M247.9,210.2l3.2-1.9c0.3-0.2,0.2-0.4-0.1-0.6l-3.2-1.9c-0.3-0.2-0.7-0.2-1,0l-3.2,1.9
			c-0.3,0.2-0.2,0.4,0.1,0.6l3.2,1.9C247.2,210.4,247.6,210.4,247.9,210.2z" />
			<path class="st0" d="M242.9,213.2l3.2-1.9c0.3-0.2,0.2-0.4-0.1-0.6l-3.2-1.9c-0.3-0.2-0.7-0.2-1,0l-3.2,1.9
			c-0.3,0.2-0.2,0.4,0.1,0.6l3.2,1.9C242.2,213.4,242.6,213.4,242.9,213.2z" />
			<path class="st0" d="M237.9,216.2l3.2-1.9c0.3-0.2,0.2-0.4-0.1-0.6l-3.2-1.9c-0.3-0.2-0.7-0.2-1,0l-3.2,1.9
			c-0.3,0.2-0.2,0.4,0.1,0.6l3.2,1.9C237.2,216.4,237.6,216.4,237.9,216.2z" />
			<path class="st0" d="M232.9,219.2l3.2-1.9c0.3-0.2,0.2-0.4-0.1-0.6l-3.2-1.9c-0.3-0.2-0.7-0.2-1,0l-3.2,1.9
			c-0.3,0.2-0.2,0.4,0.1,0.6l3.2,1.9C232.2,219.3,232.6,219.3,232.9,219.2z" />
			<path class="st0" d="M227.9,222.1l3.2-2c0.3-0.2,0.2-0.4-0.1-0.6l-3.2-1.9c-0.3-0.2-0.7-0.2-1,0l-3.2,1.9
			c-0.3,0.2-0.2,0.4,0.1,0.6l3.2,1.9C227.2,222.3,227.6,222.3,227.9,222.1z" />
			<path class="st0" d="M223,225.1l3.2-1.9c0.3-0.2,0.2-0.4-0.1-0.6l-3.2-1.9c-0.3-0.2-0.7-0.2-1,0l-3.2,1.9
			c-0.3,0.2-0.2,0.4,0.1,0.6l3.2,1.9C222.2,225.3,222.6,225.3,223,225.1z" />
			<path class="st0" d="M218,228.1l3.2-1.9c0.3-0.2,0.2-0.4-0.1-0.6l-3.2-1.9c-0.3-0.2-0.7-0.2-1,0l-3.2,1.9
			c-0.3,0.2-0.2,0.4,0.1,0.6l3.2,1.9C217.3,228.2,217.6,228.3,218,228.1z" />
			<path class="st0" d="M213,231.1l3.2-1.9c0.3-0.2,0.2-0.4-0.1-0.6l-3.2-1.9c-0.3-0.2-0.7-0.2-1-0.1l-3.2,1.9
			c-0.3,0.2-0.2,0.4,0.1,0.6l3.2,1.9C212.3,231.2,212.7,231.2,213,231.1z" />
			<path class="st0" d="M208,234l3.2-1.9c0.3-0.2,0.2-0.4-0.1-0.6l-3.2-1.9c-0.3-0.2-0.7-0.2-1,0l-3.2,1.9c-0.3,0.2-0.2,0.4,0.1,0.6
			l3.2,1.9C207.3,234.2,207.7,234.2,208,234z" />
			<path class="st0" d="M245.5,205.9l3.2-1.9c0.3-0.2,0.2-0.4-0.1-0.6l-3.2-1.9c-0.3-0.2-0.7-0.2-1-0.1l-3.2,1.9
			c-0.3,0.2-0.2,0.4,0.1,0.6l3.2,1.9C244.8,206,245.2,206,245.5,205.9z" />
			<path class="st0" d="M250.6,202.8l3.2-1.9c0.3-0.2,0.2-0.4-0.1-0.6l-3.2-1.9c-0.3-0.2-0.7-0.2-1,0l-3.2,1.9
			c-0.3,0.2-0.2,0.4,0.1,0.6l3.2,1.9C249.9,203,250.3,203,250.6,202.8z" />
			<path class="st0" d="M255.6,199.8l7-4.1c0.3-0.2,0.2-0.4-0.1-0.6l-3.2-1.9c-0.3-0.2-0.7-0.2-1,0l-7,4.1c-0.3,0.2-0.2,0.4,0.1,0.6
			l3.2,1.9C254.9,200,255.3,200,255.6,199.8z" />
			<path class="st0" d="M252.1,196.1l5.6-3.4c0.3-0.2,0.2-0.4-0.1-0.6l-3.2-1.9c-0.3-0.2-0.7-0.2-1,0l-5.6,3.4
			c-0.3,0.2-0.2,0.4,0.1,0.6l3.2,1.9C251.4,196.3,251.8,196.3,252.1,196.1z" />
			<path class="st0" d="M240.5,208.8l3.2-1.9c0.3-0.2,0.2-0.4-0.1-0.6l-3.2-1.9c-0.3-0.2-0.7-0.2-1,0l-3.2,1.9
			c-0.3,0.2-0.2,0.4,0.1,0.6l3.2,1.9C239.8,209,240.2,209,240.5,208.8z" />
			<path class="st0" d="M235.5,211.8l3.2-1.9c0.3-0.2,0.2-0.4-0.1-0.6l-3.2-1.9c-0.3-0.2-0.7-0.2-1,0l-3.2,1.9
			c-0.3,0.2-0.2,0.4,0.1,0.6l3.2,1.9C234.8,212,235.2,212,235.5,211.8z" />
			<path class="st0" d="M230.6,214.8l3.2-1.9c0.3-0.2,0.2-0.4-0.1-0.6l-3.2-1.9c-0.3-0.2-0.7-0.2-1,0l-3.2,1.9
			c-0.3,0.2-0.2,0.4,0.1,0.6l3.2,1.9C229.9,215,230.2,215,230.6,214.8z" />
			<path class="st0" d="M225.6,217.8l3.2-1.9c0.3-0.2,0.2-0.4-0.1-0.6l-3.2-1.9c-0.3-0.2-0.7-0.2-1,0l-3.2,1.9
			c-0.3,0.2-0.2,0.4,0.1,0.6l3.2,1.9C224.9,217.9,225.3,217.9,225.6,217.8z" />
			<path class="st0" d="M220.6,220.7l3.2-1.9c0.3-0.2,0.2-0.4-0.1-0.6l-3.2-1.9c-0.3-0.2-0.7-0.2-1-0.1l-3.2,1.9
			c-0.3,0.2-0.2,0.4,0.1,0.6l3.2,1.9C219.9,220.9,220.3,220.9,220.6,220.7z" />
			<path class="st0" d="M215.6,223.7l3.2-1.9c0.3-0.2,0.2-0.4-0.1-0.6l-3.2-1.9c-0.3-0.2-0.7-0.2-1,0l-3.2,1.9
			c-0.3,0.2-0.2,0.4,0.1,0.6l3.2,1.9C214.9,223.8,215.3,223.9,215.6,223.7z" />
			<path class="st0" d="M210.6,226.7l3.2-1.9c0.3-0.2,0.2-0.4-0.1-0.6l-3.2-1.9c-0.3-0.2-0.7-0.2-1,0l-3.2,1.9
			c-0.3,0.2-0.2,0.4,0.1,0.6l3.2,1.9C209.9,226.8,210.3,226.8,210.6,226.7z" />
			<path class="st0" d="M205.6,229.7l3.2-1.9c0.3-0.2,0.2-0.4-0.1-0.6l-3.2-1.9c-0.3-0.2-0.7-0.2-1,0l-3.2,1.9
			c-0.3,0.2-0.2,0.4,0.1,0.6l3.2,1.9C204.9,229.8,205.3,229.8,205.6,229.7z" />
			<path class="st0" d="M200.6,232.6l3.2-1.9c0.3-0.2,0.2-0.4-0.1-0.6l-3.2-1.9c-0.3-0.2-0.7-0.2-1,0l-3.2,1.9
			c-0.3,0.2-0.2,0.4,0.1,0.6l3.2,1.9C199.9,232.8,200.3,232.8,200.6,232.6z" />
			<path class="st0" d="M191.8,237.9l7-4.2c0.3-0.2,0.2-0.4-0.1-0.6l-3.2-1.9c-0.3-0.2-0.7-0.2-1,0l-7,4.2c-0.3,0.2-0.2,0.4,0.1,0.6
			l3.2,1.9C191.1,238.1,191.5,238.1,191.8,237.9z" />
			<path class="st0" d="M182.1,232.1l6-3.5c0.3-0.2,0.2-0.4-0.1-0.6l-3.2-1.9c-0.3-0.2-0.7-0.2-1,0l-6,3.5c-0.3,0.2-0.2,0.4,0.1,0.6
			l3.2,1.9C181.4,232.3,181.7,232.3,182.1,232.1z" />
			<path class="st0" d="M231.8,208.3l3.2-1.9c0.3-0.2,0.2-0.4-0.1-0.6l-3.2-1.9c-0.3-0.2-0.7-0.2-1,0l-3.2,1.9
			c-0.3,0.2-0.2,0.4,0.1,0.6l3.2,1.9C231.1,208.4,231.5,208.4,231.8,208.3z" />
			<path class="st0" d="M236.9,205.2l3.2-1.9c0.3-0.2,0.2-0.4-0.1-0.6l-3.2-1.9c-0.3-0.2-0.7-0.2-1,0l-3.2,1.9
			c-0.3,0.2-0.2,0.4,0.1,0.6l3.2,1.9C236.2,205.4,236.6,205.4,236.9,205.2z" />
			<path class="st0" d="M242,202.2l3.2-1.9c0.3-0.2,0.2-0.4-0.1-0.6l-3.2-1.9c-0.3-0.2-0.7-0.2-1,0l-3.2,1.9
			c-0.3,0.2-0.2,0.4,0.1,0.6l3.2,1.9C241.3,202.3,241.7,202.3,242,202.2z" />
			<path class="st0" d="M247.1,199.1l3.2-1.9c0.3-0.2,0.2-0.4-0.1-0.6l-3.2-1.9c-0.3-0.2-0.7-0.2-1,0l-3.2,1.9
			c-0.3,0.2-0.2,0.4,0.1,0.6l3.2,1.9C246.4,199.3,246.8,199.3,247.1,199.1z" />
			<path class="st0" d="M226.8,211.2l3.2-1.9c0.3-0.2,0.2-0.4-0.1-0.6l-3.2-1.9c-0.3-0.2-0.7-0.2-1,0l-3.2,1.9
			c-0.3,0.2-0.2,0.4,0.1,0.6l3.2,1.9C226.1,211.4,226.5,211.4,226.8,211.2z" />
			<path class="st0" d="M221.8,214.2l3.2-1.9c0.3-0.2,0.2-0.4-0.1-0.6l-3.2-1.9c-0.3-0.2-0.7-0.2-1,0l-3.2,1.9
			c-0.3,0.2-0.2,0.4,0.1,0.6l3.2,1.9C221.1,214.4,221.5,214.4,221.8,214.2z" />
			<path class="st0" d="M216.8,217.2l3.2-1.9c0.3-0.2,0.2-0.4-0.1-0.6l-3.2-1.9c-0.3-0.2-0.7-0.2-1,0l-3.2,1.9
			c-0.3,0.2-0.2,0.4,0.1,0.6l3.2,1.9C216.1,217.3,216.5,217.3,216.8,217.2z" />
			<path class="st0" d="M211.8,220.2l3.2-1.9c0.3-0.2,0.2-0.4-0.1-0.6l-3.2-1.9c-0.3-0.2-0.7-0.2-1,0l-3.2,2
			c-0.3,0.2-0.2,0.4,0.1,0.6l3.2,1.9C211.1,220.3,211.5,220.3,211.8,220.2z" />
			<path class="st0" d="M206.9,223.1l3.2-1.9c0.3-0.2,0.2-0.4-0.1-0.6l-3.2-1.9c-0.3-0.2-0.7-0.2-1,0l-3.2,1.9
			c-0.3,0.2-0.2,0.4,0.1,0.6l3.2,1.9C206.2,223.3,206.6,223.3,206.9,223.1z" />
			<path class="st0" d="M201.9,226.1l3.2-1.9c0.3-0.2,0.2-0.4-0.1-0.6l-3.2-1.9c-0.3-0.2-0.7-0.2-1,0l-3.2,1.9
			c-0.3,0.2-0.2,0.4,0.1,0.6l3.2,1.9C201.2,226.3,201.6,226.3,201.9,226.1z" />
			<path class="st0" d="M196.9,229.1l3.2-1.9c0.3-0.2,0.2-0.4-0.1-0.6l-3.2-1.9c-0.3-0.2-0.7-0.2-1,0l-3.2,1.9
			c-0.3,0.2-0.2,0.4,0.1,0.6l3.2,1.9C196.2,229.2,196.6,229.2,196.9,229.1z" />
			<path class="st0" d="M191.9,232l3.2-1.9c0.3-0.2,0.2-0.4-0.1-0.6l-3.2-1.9c-0.3-0.2-0.7-0.2-1,0l-3.2,1.9
			c-0.3,0.2-0.2,0.4,0.1,0.6l3.2,1.9C191.2,232.2,191.6,232.2,191.9,232z" />
			<path class="st0" d="M186.9,235l3.2-1.9c0.3-0.2,0.2-0.4-0.1-0.6l-3.2-1.9c-0.3-0.2-0.7-0.2-1,0l-3.2,1.9
			c-0.3,0.2-0.2,0.4,0.1,0.6l3.2,1.9C186.2,235.2,186.6,235.2,186.9,235z" />
			<path class="st0" d="M234.4,200.9l3.2-1.9c0.3-0.2,0.2-0.4-0.1-0.6l-3.2-1.9c-0.3-0.2-0.7-0.2-1,0l-3.2,1.9
			c-0.3,0.2-0.2,0.4,0.1,0.6l3.2,1.9C233.7,201,234.1,201.1,234.4,200.9z" />
			<path class="st0" d="M239.4,197.9l3.2-1.9c0.3-0.2,0.2-0.4-0.1-0.6l-3.2-1.9c-0.3-0.2-0.7-0.2-1,0l-3.2,1.9
			c-0.3,0.2-0.2,0.4,0.1,0.6l3.2,1.9C238.7,198.1,239.1,198.1,239.4,197.9z" />
			<path class="st0" d="M244.3,195l3.2-1.9c0.3-0.2,0.2-0.4-0.1-0.6l-3.2-1.9c-0.3-0.2-0.7-0.2-1,0l-3.2,1.9
			c-0.3,0.2-0.2,0.4,0.1,0.6l3.2,1.9C243.7,195.2,244,195.2,244.3,195z" />
			<path class="st0" d="M249.3,192l3.2-1.9c0.3-0.2,0.2-0.4-0.1-0.6l-3.2-1.9c-0.3-0.2-0.7-0.2-1,0l-3.2,1.9
			c-0.3,0.2-0.2,0.4,0.1,0.6l3.2,1.9C248.6,192.2,249,192.2,249.3,192z" />
			<path class="st0" d="M244.2,189l3.2-1.9c0.3-0.2,0.2-0.4-0.1-0.6l-1.1-0.6c-0.3-0.2-0.7-0.2-1,0l-3.2,1.9
			c-0.3,0.2-0.2,0.4,0.1,0.6l1.1,0.6C243.5,189.1,243.9,189.1,244.2,189z" />
			<path class="st0" d="M237.7,192.8l3.2-1.9c0.3-0.2,0.2-0.4-0.1-0.6l-1.1-0.6c-0.3-0.2-0.7-0.2-1,0l-3.2,1.9
			c-0.3,0.2-0.2,0.4,0.1,0.6l1.1,0.6C237,193,237.4,193,237.7,192.8z" />
			<path class="st0" d="M232.8,195.8l3.2-1.9c0.3-0.2,0.2-0.4-0.1-0.6l-1.1-0.6c-0.3-0.2-0.7-0.2-1,0l-3.2,1.9
			c-0.3,0.2-0.2,0.4,0.1,0.6l1.1,0.6C232.1,196,232.5,196,232.8,195.8z" />
			<path class="st0" d="M227.8,198.7l3.2-1.9c0.3-0.2,0.2-0.4-0.1-0.6l-1.1-0.6c-0.3-0.2-0.7-0.2-1,0l-3.2,1.9
			c-0.3,0.2-0.2,0.4,0.1,0.6l1.1,0.6C227.2,198.9,227.5,198.9,227.8,198.7z" />
			<path class="st0" d="M222.9,201.7l3.2-1.9c0.3-0.2,0.2-0.4-0.1-0.6l-1.1-0.6c-0.3-0.2-0.7-0.2-1,0l-3.2,1.9
			c-0.3,0.2-0.2,0.4,0.1,0.6l1.1,0.6C222.2,201.8,222.6,201.8,222.9,201.7z" />
			<path class="st0" d="M195.3,218.1l3.2-1.9c0.3-0.2,0.2-0.4-0.1-0.6l-1.1-0.6c-0.3-0.2-0.7-0.2-1,0l-3.2,1.9
			c-0.3,0.2-0.2,0.4,0.1,0.6l1.1,0.6C194.6,218.3,195,218.3,195.3,218.1z" />
			<path class="st0" d="M190.4,221.1l3.2-1.9c0.3-0.2,0.2-0.4-0.1-0.6l-1.1-0.6c-0.3-0.2-0.7-0.2-1,0l-3.2,1.9
			c-0.3,0.2-0.2,0.4,0.1,0.6l1.1,0.6C189.7,221.2,190.1,221.2,190.4,221.1z" />
			<path class="st0" d="M185.4,224l3.2-1.9c0.3-0.2,0.2-0.4-0.1-0.6l-1.1-0.6c-0.3-0.2-0.7-0.2-1,0l-3.2,1.9
			c-0.3,0.2-0.2,0.4,0.1,0.6l1.1,0.6C184.7,224.2,185.1,224.2,185.4,224z" />
			<path class="st0" d="M180.5,227l3.2-1.9c0.3-0.2,0.2-0.4-0.1-0.6l-1.1-0.6c-0.3-0.2-0.7-0.2-1,0l-3.2,1.9
			c-0.3,0.2-0.2,0.4,0.1,0.6l1.1,0.6C179.8,227.2,180.2,227.2,180.5,227z" />
			<path class="st0" d="M229.4,203.9l3.2-1.9c0.3-0.2,0.2-0.4-0.1-0.6l-3.2-1.9c-0.3-0.2-0.7-0.2-1,0l-3.2,1.9
			c-0.3,0.2-0.2,0.4,0.1,0.6l3.2,1.9C228.7,204,229.1,204,229.4,203.9z" />
			<path class="st0" d="M224.4,206.9l3.2-1.9c0.3-0.2,0.2-0.4-0.1-0.6l-3.2-1.9c-0.3-0.2-0.7-0.2-1,0l-3.2,1.9
			c-0.3,0.2-0.2,0.4,0.1,0.6l3.2,1.9C223.8,207,224.1,207,224.4,206.9z" />
			<path class="st0" d="M219.5,209.8l3.2-1.9c0.3-0.2,0.2-0.4-0.1-0.6l-3.2-1.9c-0.3-0.2-0.7-0.2-1,0l-3.2,1.9
			c-0.3,0.2-0.2,0.4,0.1,0.6l3.2,1.9C218.8,210,219.2,210,219.5,209.8z" />
			<path class="st0" d="M214.5,212.8l3.2-1.9c0.3-0.2,0.2-0.4-0.1-0.6l-3.2-1.9c-0.3-0.2-0.7-0.2-1,0l-3.2,1.9
			c-0.3,0.2-0.2,0.4,0.1,0.6l3.2,1.9C213.8,212.9,214.2,213,214.5,212.8z" />
			<path class="st0" d="M209.5,215.8l3.2-1.9c0.3-0.2,0.2-0.4-0.1-0.6l-3.2-1.9c-0.3-0.2-0.7-0.2-1,0l-3.2,1.9
			c-0.3,0.2-0.2,0.4,0.1,0.6l3.2,1.9C208.8,215.9,209.2,215.9,209.5,215.8z" />
			<path class="st0" d="M204.5,218.7l3.2-1.9c0.3-0.2,0.2-0.4-0.1-0.6l-3.2-1.9c-0.3-0.2-0.7-0.2-1,0l-3.2,1.9
			c-0.3,0.2-0.2,0.4,0.1,0.6l3.2,1.9C203.8,218.9,204.2,218.9,204.5,218.7z" />
			<path class="st0" d="M199.5,221.7l3.2-1.9c0.3-0.2,0.2-0.4-0.1-0.6l-3.2-1.9c-0.3-0.2-0.7-0.2-1,0l-3.2,1.9
			c-0.3,0.2-0.2,0.4,0.1,0.6l3.2,1.9C198.8,221.9,199.2,221.9,199.5,221.7z" />
			<path class="st0" d="M194.5,224.7l3.2-1.9c0.3-0.2,0.2-0.4-0.1-0.6l-3.2-1.9c-0.3-0.2-0.7-0.2-1,0l-3.2,1.9
			c-0.3,0.2-0.2,0.4,0.1,0.6l3.2,1.9C193.8,224.8,194.2,224.8,194.5,224.7z" />
			<path class="st0" d="M189.6,227.7l3.2-1.9c0.3-0.2,0.2-0.4-0.1-0.6l-3.2-1.9c-0.3-0.2-0.7-0.2-1-0.1l-3.2,1.9
			c-0.3,0.2-0.2,0.4,0.1,0.6l3.2,1.9C188.8,227.8,189.2,227.8,189.6,227.7z" />
			<path class="st0" d="M257.9,204.2l9.5-5.7c0.3-0.2,0.2-0.4-0.1-0.6l-3.2-1.9c-0.3-0.2-0.7-0.2-1,0l-9.5,5.7
			c-0.3,0.2-0.2,0.4,0.1,0.6l3.2,1.9C257.2,204.4,257.6,204.4,257.9,204.2z" />
			<path class="st0" d="M196.7,240.8l9.5-5.7c0.3-0.2,0.2-0.4-0.1-0.6l-3.2-1.9c-0.3-0.2-0.7-0.2-1,0l-9.5,5.7
			c-0.3,0.2-0.2,0.4,0.1,0.6l3.2,1.9C196,240.9,196.4,240.9,196.7,240.8z" />
			<path class="st0" d="M216.6,235.5l3.2-1.9c0.3-0.2,0.2-0.4-0.1-0.6l-3.8-2.3c-0.3-0.2-0.7-0.2-1,0l-3.2,1.9
			c-0.3,0.2-0.2,0.4,0.1,0.6l3.8,2.3C215.9,235.6,216.3,235.6,216.6,235.5z" />
			<path class="st0" d="M252.8,213.9l5.2-3.1c0.3-0.2,0.2-0.4-0.1-0.6l-3.8-2.3c-0.3-0.2-0.7-0.2-1,0l-5.2,3.1
			c-0.3,0.2-0.2,0.4,0.1,0.6l3.8,2.3C252.1,214,252.5,214,252.8,213.9z" />
			<path class="st0" d="M221.4,232.6l5.2-3.1c0.3-0.2,0.2-0.4-0.1-0.6l-3.8-2.3c-0.3-0.2-0.7-0.2-1,0l-5.2,3.1
			c-0.3,0.2-0.2,0.4,0.1,0.6l3.8,2.3C220.7,232.8,221.1,232.8,221.4,232.6z" />
			<path class="st0" d="M245.6,218.2l5.2-3.1c0.3-0.2,0.2-0.4-0.1-0.6l-3.8-2.3c-0.3-0.2-0.7-0.2-1,0l-5.1,3.1
			c-0.3,0.2-0.2,0.4,0.1,0.6l3.8,2.3C245,218.3,245.3,218.3,245.6,218.2z" />
			<path class="st0" d="M245.9,212.2l-22.4,13.4c-0.2,0.1-0.3,0.3-0.2,0.4c0,0.1,0.1,0.2,0.2,0.2l3.9,2.3c0.3,0.2,0.7,0.2,1,0
			l22.4-13.4L245.9,212.2z" />
			<path class="st0" d="M202.7,240.8l-3.6,2.1c-0.2,0.1-0.2,0.3,0.1,0.5l1.6,0.9c0.3,0.1,0.6,0.1,0.9,0l3.6-2.1
			c0.2-0.1,0.2-0.3-0.1-0.5l-1.6-0.9C203.3,240.7,203,240.7,202.7,240.8z" />
			<path class="st0" d="M207.7,237.8l-3.6,2.1c-0.2,0.1-0.2,0.3,0.1,0.5l1.6,0.9c0.3,0.2,0.6,0.2,0.9,0l3.6-2.1
			c0.2-0.1,0.2-0.3-0.1-0.5l-1.6-0.9C208.3,237.7,208,237.7,207.7,237.8z" />
			<path class="st0" d="M212.7,234.9l-3.6,2.1c-0.2,0.1-0.2,0.3,0.1,0.5l1.6,0.9c0.3,0.2,0.6,0.2,0.9,0l3.6-2.1
			c0.2-0.1,0.2-0.3-0.1-0.5l-1.6-0.9C213.3,234.8,213,234.7,212.7,234.9z" />
			<path class="st0" d="M205,236.2l-3.6,2.1c-0.2,0.1-0.2,0.3,0.1,0.5l1.6,0.9c0.3,0.1,0.6,0.1,0.9,0l3.6-2.1
			c0.2-0.1,0.2-0.3-0.1-0.5l-1.6-0.9C205.5,236.1,205.2,236.1,205,236.2z" />
			<polygon class="st3" points="185.3,178.2 212.1,162.2 211.8,160.4 184.9,176.4 		" />
			<polygon class="st3" points="194.9,181.2 213.6,170 213.3,168.2 194.5,179.4 		" />
			<polygon class="st9" points="196.7,175.8 212.9,166.1 212.5,164.3 196.3,174 		" />
			<polygon class="st2" points="186,182.1 194.1,177.3 193.8,175.5 185.7,180.3 		" />
			<path class="st2" d="M200.1,160.3c0.2,0.5,0.8,0.8,1.3,0.5c0.1,0,0.1,0,0.2-0.1c0.6-0.3,0.8-1,0.5-1.6c-0.2-0.5-0.8-0.8-1.3-0.5
			c-0.1,0-0.1,0-0.2,0.1C200.1,159,199.9,159.7,200.1,160.3z" />
			<path class="st3" d="M196.6,162.4c0.2,0.5,0.8,0.8,1.3,0.5c0.1,0,0.1,0,0.2-0.1c0.6-0.3,0.8-1,0.5-1.6c-0.2-0.5-0.8-0.8-1.3-0.5
			c-0.1,0-0.1,0-0.2,0.1C196.6,161.1,196.4,161.8,196.6,162.4z" />
			<path class="st2" d="M193.1,164.5c0.2,0.5,0.8,0.8,1.3,0.5c0.1,0,0.1,0,0.1-0.1c0.6-0.3,0.8-1,0.5-1.6c-0.2-0.5-0.8-0.8-1.3-0.5
			c-0.1,0-0.1,0-0.2,0.1C193.1,163.2,192.8,163.9,193.1,164.5z" />
			<path class="st9" d="M189.6,166.5c0.2,0.5,0.8,0.8,1.3,0.5c0.1,0,0.1,0,0.2-0.1c0.6-0.3,0.8-1,0.5-1.6c-0.2-0.5-0.8-0.8-1.3-0.5
			c-0.1,0-0.1,0-0.2,0.1C189.6,165.2,189.4,165.9,189.6,166.5z" />
			<path class="st2" d="M185.3,93.1l1.4-0.9v-2c0.1-2.4,1.4-4.6,3.3-6l10.5-6.2c1.8-1.1,3.3-0.2,3.3,2v2l1.4-0.9v-2
			c0-3.1-2.1-4.4-4.7-2.8L190,82.6c-2.8,1.9-4.6,5.1-4.7,8.5L185.3,93.1z" />
			<path class="st2"
				d="M190,95.9l-4.7-2.8l1-3.4l1.3-3.4c0,0,2.3-2.6,2.4-2.7c0.2-0.1,6.4-3.7,6.4-3.7l5.1-3.8l2.5,0.1l4.6,2.7
			l-3.3,1.4c0,0-1.9,1-2.3,1.1c-0.8,0.6-1.6,1.2-2.3,1.9l-2.2,0.9l-0.5-0.1l-4,2.9l-1.3,0.6l-0.7,1.2l-1.1,3.1L190,95.9z" />
			<path class="st1" d="M203.8,82.1l4.7,2.8c0,0,0.3-3.1,0.3-3.2s-1-1.5-1-1.5l-2.6-0.5l-2,1.6l0.6-0.3l0.3,0.2l-0.3,0.5L203.8,82.1z
			" />
			<path class="st0" d="M190,95.9l1.4-0.9v-2c0.1-2.4,1.4-4.6,3.3-6l10.5-6.2c1.8-1.1,3.3-0.2,3.3,2v2.1l1.4-0.9v-2
			c0-3.1-2.1-4.4-4.7-2.8l-10.4,6.2c-2.8,1.9-4.6,5-4.7,8.4L190,95.9z" />
			<path class="st2" d="M138,93.1l1-0.6c0.4,0.3,0.9,0.6,1.3,0.9l-2.3,1.4c-2,1.4-3.2,3.6-3.3,6v2.1l-1.4,0.9v-2
			C133.4,98.1,135.1,95,138,93.1z" />
			<path class="st2" d="M135.5,96.7c0,0,2.3-2.6,2.4-2.7c0.2-0.1,0.9-0.5,1.8-1c1.5,1,3,1.9,4.5,2.7l-2.4,1.8l-1.3,0.6l-0.7,1.2
			l-1.1,3.1l-0.9,4l-4.7-2.8l1-3.4L135.5,96.7z" />
			<path class="st0"
				d="M142.7,97.6c-2,1.4-3.2,3.6-3.3,6v2.1l-1.4,0.9v-2.1c0.1-3.4,1.9-6.6,4.7-8.5l0.9-0.5l1.4,0.8L142.7,97.6z" />
			<path class="st10" d="M52.3,58.9l15.8-9.4c0.2-0.2,0.6-0.2,0.9-0.1l0,0l1.5,0.9l-1.1,0.4v11.9c0,1-0.5,2-1.3,2.6l-15.1,9v1.4
			l-1.5-0.9l0,0c-0.3-0.3-0.5-0.6-0.4-1V61.4C51.1,60.5,51.5,59.5,52.3,58.9z" />
			<path class="st9" d="M53.9,75.5L69.7,66c0.8-0.6,1.3-1.5,1.3-2.5V51.5c0-1-0.6-1.4-1.3-1l-15.8,9.4c-0.8,0.6-1.3,1.5-1.3,2.5v12.1
			C52.6,75.5,53.2,75.9,53.9,75.5z" />
			<path class="st3" d="M53.5,59.7l15.8-9.4c0.3-0.2,0.7-0.2,1,0c-0.2,0-0.4,0-0.6,0.1l-15.8,9.4c-0.8,0.6-1.3,1.5-1.3,2.5v12.1
			c0,0.3,0.1,0.7,0.3,0.9c-0.4,0-0.7-0.5-0.7-1.1V62.2C52.3,61.2,52.7,60.3,53.5,59.7z" />
			<path class="st3"
				d="M64.4,61.9c0,0.7,0.5,1,1.1,0.6c0.6-0.4,1-1.1,1.1-1.9c0-0.7-0.5-1-1.1-0.6C64.8,60.4,64.4,61.1,64.4,61.9z" />
			<path class="st3"
				d="M61.1,63.8c0,0.7,0.5,1,1.1,0.6c0.6-0.4,1-1.1,1.1-1.9c0-0.7-0.5-1-1.1-0.6C61.6,62.4,61.2,63.1,61.1,63.8z" />
			<path class="st3"
				d="M57.9,65.7c0,0.7,0.5,1,1.1,0.6c0.6-0.4,1-1.1,1.1-1.9c0-0.7-0.5-1-1.1-0.6C58.4,64.3,58,65,57.9,65.7z" />
			<path class="st0" d="M61.3,43.7l15.8-9.4c0.2-0.2,0.6-0.2,0.9-0.1l0,0l1.5,0.9l-1.1,0.4v11.8c0,1-0.5,1.9-1.3,2.5l-15.1,9v1.4
			l-1.5-0.9l0,0c-0.3-0.3-0.5-0.6-0.4-1V46.2C60.1,45.2,60.5,44.3,61.3,43.7z" />
			<path class="st2" d="M62.9,60.3l15.8-9.4c0.8-0.6,1.3-1.5,1.3-2.5V36.2c0-1-0.6-1.4-1.3-1l-15.8,9.4c-0.8,0.6-1.3,1.5-1.3,2.5
			v12.1C61.6,60.2,62.2,60.7,62.9,60.3z" />
			<path class="st3" d="M62.5,44.5l15.8-9.4c0.3-0.2,0.7-0.2,1,0c-0.2,0-0.4,0-0.6,0.1l-15.8,9.4c-0.8,0.6-1.3,1.5-1.3,2.5v12.1
			c0,0.4,0.1,0.7,0.3,1c-0.4,0-0.7-0.5-0.7-1.1V47C61.3,46,61.7,45,62.5,44.5z" />
			<path class="st3"
				d="M73.4,46.7c0,0.7,0.5,1,1.1,0.6c0.6-0.4,1-1.1,1.1-1.9c0-0.7-0.5-1-1.1-0.6C73.8,45.2,73.4,45.9,73.4,46.7z" />
			<path class="st3"
				d="M70.1,48.6c0,0.7,0.5,1,1.1,0.6c0.6-0.4,1-1.1,1.1-1.9c0-0.7-0.5-1-1.1-0.6C70.6,47.1,70.2,47.8,70.1,48.6z" />
			<path class="st3"
				d="M66.9,50.5c0,0.7,0.5,1,1.1,0.6c0.6-0.4,1-1.1,1.1-1.9c0-0.7-0.5-1-1.1-0.6C67.3,49,66.9,49.7,66.9,50.5z" />
			<polygon class="st0" points="26.4,151.7 23.9,148.5 30.6,142.9 33.1,146.1 		" />
			<path class="st0" d="M25.4,151.7c-0.9-0.4-1.6-1.2-1.8-2.2c-0.1-0.9,0.4-1.4,1.3-1.1c0.9,0.4,1.6,1.3,1.8,2.2
			C26.8,151.6,26.3,152.1,25.4,151.7z" />
			<polygon class="st0" points="32.7,148 28.6,142.9 35.4,137.1 39.5,142.3 		" />
			<path class="st1"
				d="M29.5,143.8l-2.2,1.9c0.4,1.4,1.3,2.5,2.6,3.2l2.2-1.9C31.6,145.6,30.7,144.5,29.5,143.8z" />
			<path class="st0" d="M31.1,148.1c-1.5-0.7-2.5-2-2.9-3.6c-0.2-1.5,0.7-2.3,2-1.7c1.5,0.7,2.5,2,2.9,3.6
			C33.3,147.9,32.4,148.7,31.1,148.1z" />
			<path class="st0" d="M37.9,142.4c-1.5-0.7-2.5-2-2.9-3.6c-0.2-1.5,0.7-2.3,2-1.7c1.5,0.7,2.5,2,2.9,3.6
			C40.1,142.2,39.2,142.9,37.9,142.4z" />

			<ellipse transform="matrix(0.7945 -0.6072 0.6072 0.7945 -77.1571 51.4407)" class="st2" cx="37.4" cy="139.7"
				rx="1.1" ry="1.9" />
			<path class="st2" d="M25.4,149.1c-0.3,0.3-0.6,0.2-0.7-0.3c0-0.5,0.1-0.9,0.5-1.3c0.3-0.3,0.6-0.2,0.7,0.3
			C25.9,148.3,25.8,148.8,25.4,149.1z" />
			<path class="st0" d="M87.8,211.7c1.1,0,2.2-0.3,3.1-0.9l7.6-4.6c0.2-0.1,0.3-0.4,0.2-0.7c-0.1-0.2-0.4-0.3-0.6-0.2c0,0,0,0,0,0
			l-7.6,4.6c-1.5,1-3.4,1-5,0.1c-1.8-1.1-2.8-3-2.8-5.1c0-5.1,0.5-11.5,1.1-18.2c1.8-20.9,3.8-44.7-9-48.1c-5.7-1.5-10-3.1-13.4-4.4
			c-10-3.6-13.7-5-24.1,4.9c-0.2,0.2-0.2,0.5,0,0.7c0.2,0.2,0.5,0.2,0.7,0c0,0,0,0,0,0c9.9-9.5,13.2-8.3,23.1-4.7
			c3.5,1.3,7.8,2.9,13.5,4.4c12,3.2,10,26.5,8.2,47c-0.6,6.7-1.1,13.1-1.1,18.3c-0.1,2.4,1.2,4.7,3.3,6
			C85.8,211.4,86.8,211.7,87.8,211.7z" />
			<ellipse class="st4" cx="55.3" cy="210.5" rx="15.6" ry="9.3" />
			<path class="st5" d="M47.9,206.5c-0.9,0.5-1.5,1.5-1.4,2.5c0,0.4,0.1,0.8,0.2,1.2c0.5,1,1.7,1.4,2.6,0.9c0,0,0,0,0.1,0
			c1.5-0.6,4.7-3.8,4.8-5.8C54.4,201.4,50.2,205.5,47.9,206.5z" />
			<path class="st5" d="M56.5,212.8c-0.2,0.9-0.2,1.7-0.2,2.6c0.6,0.9,1.7,1.3,2.7,1.1c1.5-0.2,5.8-1.7,6.8-4.7
			c1.5-4.6-8.4,0.3-8.4,0.3L56.5,212.8z" />
			<path class="st5" d="M60.7,177.4l0.3,34.6c0,1.1-0.7,2.1-1.8,2.4c-0.1,0-0.3,0-0.4,0.1c-0.8,0.1-1.5-0.2-2-0.9
			c-0.3-0.4-0.4-0.9-0.5-1.4L56,197.4l-2.1-13.2l-3,23.3c0,0.6-0.3,1.2-0.8,1.5c-0.4,0.3-0.9,0.4-1.3,0.4c-0.7,0-1.4-0.4-1.8-0.9
			c-0.3-0.4-0.4-0.8-0.4-1.3l1.2-14l0.4-17.9L60.7,177.4z" />
			<path class="st11"
				d="M56.4,146.5l-0.5,3.2c0,0.7,0.5,1.2,1.1,1.4c1.2,0.3,1.5-0.5,1.5-0.5L59,147L56.4,146.5z" />

			<ellipse transform="matrix(0.5958 -0.8031 0.8031 0.5958 -91.0972 105.7127)" class="st11" cx="59.5"
				cy="143.4" rx="5" ry="4.5" />
			<path class="st0" d="M56.5,149.7c-0.1,0-4.9-3.3-6.7,0.1c-2.9,5.5-2.8,23.2-1.8,25.5c0.9,2.1,3,3.7,4.5,4.6
			c1.3,0.8,2.8,1.2,4.3,1.3c1.5,0,4.4-1.4,4.3-3.4c-0.5-9.4,0.3-17.3,1.1-25C62.2,152.7,61.2,151.7,56.5,149.7z" />
			<path class="st5"
				d="M53.8,184.3l-3,23.3c0,0.6-0.3,1.2-0.8,1.5l-0.2,0.1c0.6-0.5,2.4-20.1,2.7-22.3S53.8,184.3,53.8,184.3z" />
			<polygon class="st11" points="72,150.7 74.7,141.8 73.3,141.2 70.2,148.2 		" />
			<polygon class="st11" points="45.5,143.7 47.4,134.4 49,134.5 48.4,142.2 		" />
			<path class="st0" d="M62.2,152.7c0,0,4.7,1,7.7-4.7c0.2-0.4,0.6-0.5,1-0.3c0.1,0,0.2,0.1,0.3,0.2c0.7,0.9,1,2.1,0.8,3.2
			c-1.5,5.6-9.4,6.8-10.8,10C59.7,164.3,62.2,152.7,62.2,152.7z" />
			<path class="st0" d="M53.4,148.6c0,0-3.7,0.3-4.3-3.1c-0.2-1.1-0.3-2.2-0.4-3.3c0-0.4-0.3-0.7-0.7-0.7c0,0,0,0-0.1,0
			c-0.9,0.1-2.3,0.4-2.5,1c-0.3,0.9-0.9,5.5,2.9,12.5C50.9,159.5,53.4,148.6,53.4,148.6z" />
			<path class="st11" d="M47.5,134.5v-1.1c0-0.4,0.1-0.7,0.3-1.1l1-1.8l0.3-0.3c0.2-0.3,0.7-0.4,1-0.2l0.2,0.2
			c0.3,0.2,0.5,0.6,0.5,0.9l-0.5,1.5l0.7-0.1c0.1,0,0.3,0.1,0.3,0.2c0,0,0,0,0,0l0,0c0,0.1,0,0.2-0.2,0.3l-1.1,0.5l-1,1.5
			L47.5,134.5z" />
			<path class="st11" d="M74.7,141.9l0.3-1c0.1-0.4,0.1-0.7,0.1-1.1l-0.4-2l-0.1-0.4c-0.1-0.4-0.5-0.6-0.9-0.5l-0.3,0.1
			c-0.4,0.1-0.6,0.4-0.7,0.7v1.6l-0.6-0.4c-0.1-0.1-0.3,0-0.3,0.1c0,0,0,0,0,0l0,0c-0.1,0.1,0,0.2,0.1,0.3l0.9,0.9l0.5,2L74.7,141.9
			z" />
			<path class="st1" d="M60,159.5c-0.4,2,0.8,17.8-3.2,21.7c1.5,0,4.4-1.4,4.3-3.4c-0.3-5.8-0.1-11.5,0.4-17.3c1.5-2.1,5.8-3.4,8.5-6
			C69.7,154.5,60.4,157.4,60,159.5z" />
			<path class="st3" d="M54.8,148.8l0.7-0.7c0.6,0.6,1.2,1.1,2,1.4c0.5,0.2,1.1,0.3,1.6,0.3l0.4,1.2C59.5,151.1,56,150.8,54.8,148.8z
			" />
			<path class="st9" d="M59.7,145.2c0.2,0.1,0.4,0.1,0.5,0c0.3-0.2,0.7-1.3,1.3-1.2c0.9,0.1,2.3,2.2,4-0.7c0.9-1.5,0.4-2.3,0.8-3.1
			c0,0-0.1,0.5-3.8-1.9c-3.7-2.3-6.7,0.5-7.6,2.1s-1.5,4.8,0.9,6.5c0.4,0.3,3-0.2,3-0.5c0.1-0.2-0.6-0.6-0.2-1.1
			C58.8,145,59.3,144.9,59.7,145.2C59.7,145.1,59.7,145.1,59.7,145.2z" />
			<polygon class="st4" points="278.2,269.2 286,264.6 278.2,260 270.4,264.6 		" />
			<polygon class="st10" points="270.4,259.3 278.2,264 278.2,254.7 270.4,250.1 		" />
			<polygon class="st9" points="278.2,254.7 286,250.1 278.2,245.4 270.4,250.1 		" />
			<polygon class="st9" points="278.2,264 286,259.3 286,250.1 278.2,254.7 		" />
			<polygon class="st4" points="278.2,119.8 286,115.2 278.2,110.6 270.4,115.2 		" />
			<polygon class="st5" points="270.4,109.9 278.2,114.6 278.2,105.3 270.4,100.7 		" />
			<polygon class="st2" points="278.2,105.3 286,100.7 278.2,96 270.4,100.7 		" />
			<polygon class="st0" points="278.2,114.6 286,109.9 286,100.7 278.2,105.3 		" />
			<polygon class="st4" points="153.2,275.9 161,271.2 153.2,266.6 145.4,271.2 		" />
			<polygon class="st5" points="145.4,266 153.2,270.6 153.2,261.4 145.4,256.7 		" />
			<polygon class="st2" points="153.2,261.4 161,256.7 153.2,252.1 145.4,256.7 		" />
			<polygon class="st0" points="153.2,270.6 161,266 161,256.7 153.2,261.4 		" />
		</g>
	</g>
</svg>